<?xml version="1.0" encoding="UTF-8"?>
<svg id="Layer_1" data-name="Layer 1" xmlns="http://www.w3.org/2000/svg" viewBox="0 0 1920 1920">
  <defs>
    <style>
      .cls-1 {
        stroke-width: 0px;
      }
    </style>
  </defs>
  <g>
    <path class="cls-1" d="m201.12,1486.33h29.76l68.51,203.36h-27.9l-35.03-113.46c-7.13-22.63-13.95-44.95-20.15-68.51h-1.24c-6.51,23.56-13.02,45.88-20.15,68.51l-35.65,113.46h-26.66l68.51-203.36Zm-32.24,120.59h93.31v21.08h-93.31v-21.08Z"/>
    <path class="cls-1" d="m337.83,1539.03h21.08l2.17,25.42h1.24c15.81-16.43,33.17-29.14,56.73-29.14,35.65,0,52.08,21.08,52.08,60.76v93.62h-25.73v-90.21c0-28.52-9.92-41.85-34.41-41.85-17.98,0-30.07,8.99-47.43,26.97v105.09h-25.73v-150.66Z"/>
    <path class="cls-1" d="m517.01,1669.84l11.78-17.05c17.36,12.4,37.82,20.46,65.41,20.46,25.42,0,37.82-10.54,37.82-23.25,0-11.47-5.89-19.53-46.81-27.9-39.37-8.06-58.9-21.39-58.9-44.02,0-24.18,21.39-42.78,62.62-42.78,22.94,0,45.88,8.99,60.76,19.22l-12.4,16.43c-13.95-9.61-31.31-15.81-50.53-15.81-25.42,0-34.72,10.23-34.72,21.7,0,13.02,13.02,18.6,44.02,25.11,49.91,10.85,62,23.25,62,46.5,0,24.49-23.87,44.95-66.96,44.95-29.45,0-55.8-10.85-74.09-23.56Z"/>
    <path class="cls-1" d="m778.65,1559.8h-69.75v-20.77h95.48v150.66h-25.73v-129.89Zm-10.23-72.23c0-11.78,8.68-19.84,20.46-19.84s20.46,8.06,20.46,19.84-8.68,19.84-20.46,19.84-20.46-7.75-20.46-19.84Z"/>
    <path class="cls-1" d="m888.08,1614.04c0-48.98,36.58-78.74,76.88-78.74,43.4,0,68.82,28.21,68.82,70.68,0,5.89-.62,11.47-1.24,15.5h-127.41v-19.84h112.22l-6.51,7.13c0-35.65-17.67-53.32-45.26-53.32s-52.08,21.08-52.08,58.59,25.42,58.9,58.9,58.9c17.98,0,32.24-5.58,45.88-14.26l9.3,16.74c-14.88,9.92-34.1,17.98-58.28,17.98-45.26,0-81.22-29.14-81.22-79.36Z"/>
    <path class="cls-1" d="m1071.6,1614.67c0-48.98,32.55-79.36,68.2-79.36,17.98,0,31.93,7.13,45.26,19.22h.62l-1.24-27.59v-57.97h25.73v220.72h-21.08l-2.17-19.84h-.93c-12.4,12.71-30.38,23.56-49.29,23.56-39.06,0-65.1-28.52-65.1-78.74Zm112.84,34.72v-75.02c-13.64-12.71-26.35-17.36-39.37-17.36-26.04,0-47.12,22.94-47.12,57.35s16.74,57.35,44.33,57.35c14.88,0,28.83-7.44,42.16-22.32Z"/>
    <path class="cls-1" d="m1263.8,1650.62c0-33.79,31.62-50.22,109.43-56.42-.93-20.46-10.85-37.82-39.99-37.82-19.53,0-38.75,9.3-52.7,17.98l-10.23-17.36c15.5-9.92,40.92-21.7,67.27-21.7,41.23,0,61.38,24.49,61.38,62v92.38h-21.39l-2.17-20.46h-.93c-16.43,13.02-38.13,24.18-59.21,24.18-28.21,0-51.46-15.81-51.46-42.78Zm109.43-.31v-39.06c-64.48,4.96-84.01,17.67-84.01,37.51,0,17.05,15.5,23.87,32.86,23.87s33.79-8.06,51.15-22.32Z"/>
    <path class="cls-1" d="m1443.6,1614.67c0-48.98,32.55-79.36,68.2-79.36,17.98,0,31.93,7.13,45.26,19.22h.62l-1.24-27.59v-57.97h25.73v220.72h-21.08l-2.17-19.84h-.93c-12.4,12.71-30.38,23.56-49.29,23.56-39.06,0-65.1-28.52-65.1-78.74Zm112.84,34.72v-75.02c-13.64-12.71-26.35-17.36-39.37-17.36-26.04,0-47.12,22.94-47.12,57.35s16.74,57.35,44.33,57.35c14.88,0,28.83-7.44,42.16-22.32Z"/>
    <path class="cls-1" d="m1632.08,1614.04c0-48.98,36.58-78.74,76.88-78.74,43.4,0,68.82,28.21,68.82,70.68,0,5.89-.62,11.47-1.24,15.5h-127.41v-19.84h112.22l-6.51,7.13c0-35.65-17.67-53.32-45.26-53.32s-52.08,21.08-52.08,58.59,25.42,58.9,58.9,58.9c17.98,0,32.24-5.58,45.88-14.26l9.3,16.74c-14.88,9.92-34.1,17.98-58.28,17.98-45.26,0-81.22-29.14-81.22-79.36Z"/>
  </g>
  <g>
    <path class="cls-1" d="m1098,1217h-293.29c0-4.8,0-9.46,0-14.13-.03-108.8-.05-217.61-.08-326.41,0-3.25.14-6.5-.05-9.74-.78-13.69-9.31-19.7-22.15-15.03-16.75,6.1-33.08,13.39-49.98,19.03-33.35,11.12-62.35-1.89-71.28-32.69-2.81-9.7-3.07-21.19-.94-31.1,26.28-122.43,53.2-244.73,80.01-367.05,5.99-27.32,21.58-43.3,45.79-47.3,21.34-3.52,42.6,6.24,54.27,24.75,9.31,14.78,8.86,30.6,5.96,47.01-12.8,72.65-25.38,145.34-37.98,218.02-.62,3.59-1.09,7.28-.96,10.9.25,6.99,3.99,11.2,11.03,8.74,26.31-9.21,53.47-8.44,80.67-7.84,52.33,1.14,104.69,1.63,156.98,3.71,13.03.52,26.13,5.23,38.72,9.46,15.21,5.11,19.65,2.24,16.93-13.98-5.49-32.78-11.41-65.49-17.23-98.22-8.29-46.69-16.85-93.33-24.89-140.06-5.02-29.16,13.41-56.04,41.75-61.97,29.05-6.08,56.96,11.16,63.87,40.6,10.28,43.78,19.78,87.75,29.57,131.64,18.17,81.48,36.31,162.97,54.48,244.45,4.91,22.03,2.36,42.34-15.54,57.9-18.02,15.67-38.36,17.15-60.24,8.17-18.74-7.69-37.86-14.47-56.81-21.64-21.36-8.09-28.6-3.22-28.6,19.46-.02,109.21,0,218.42,0,327.63,0,4.81,0,9.63,0,15.7Z"/>
    <path class="cls-1" d="m955.16,669.1c-63.75-.11-114.23-50.98-113.88-114.76.34-62.89,51.34-113.53,114.26-113.45,62.67.08,113.89,51.14,114.18,113.83.3,63.23-51.04,114.49-114.55,114.38Z"/>
    <path class="cls-1" d="m839.56,196.1c1.7,1.9,5.41,4.52,7.02,8.08,11.12,24.71,22.15,49.48,32.27,74.61,1.56,3.87-1.68,9.67-2.7,14.58-4.35-2.4-10.96-3.74-12.68-7.38-11.56-24.5-22.23-49.43-32.86-74.36-3.77-8.84-.6-15.44,8.95-15.53Z"/>
    <path class="cls-1" d="m1003.43,285.5c1.69-4.52,2.44-6.82,3.4-9.04,10.29-23.73,20.6-47.44,30.92-71.15,2.58-5.93,6.02-11.72,13.49-8.31,7.31,3.34,5.5,9.65,2.86,15.66-10.89,24.78-21.42,49.73-32.82,74.28-1.52,3.28-7.24,6.23-11.05,6.26-2.48.02-5-5.52-6.8-7.71Z"/>
    <path class="cls-1" d="m752.97,244.92c3.42,2.66,6.62,4.43,8.89,7.01,17.07,19.48,33.97,39.12,50.91,58.72,4.02,4.65,6.83,9.55,1.04,14.74-5.87,5.27-10.39,1.75-14.39-2.86-17.25-19.87-34.61-39.63-51.46-59.84-2.38-2.85-3.09-8-2.67-11.89.22-2.04,4.56-3.64,7.68-5.89Z"/>
    <path class="cls-1" d="m1077.12,329.21c-2.91-2.22-6.85-3.69-7.39-5.97-.8-3.4-.43-8.33,1.59-10.92,8.21-10.52,17.23-20.41,25.97-30.52,8.74-10.11,17-20.71,26.53-30,3.05-2.97,9.51-2.43,14.42-3.5-.39,4.96,1.11,11.46-1.47,14.63-16.63,20.38-34.11,40.08-51.44,59.88-2.02,2.3-4.89,3.86-8.21,6.4Z"/>
  </g>
</svg>