<?xml version="1.0" encoding="UTF-8"?>
<svg id="Layer_1" data-name="Layer 1" xmlns="http://www.w3.org/2000/svg" viewBox="0 0 1920 1920">
  <defs>
    <style>
      .cls-1 {
        fill: #8447a0;
        stroke-width: 0px;
      }
    </style>
  </defs>
  <path class="cls-1" d="m1098,1217h-293.29c0-4.8,0-9.46,0-14.13-.03-108.8-.05-217.61-.08-326.41,0-3.25.14-6.5-.05-9.74-.78-13.69-9.31-19.7-22.15-15.03-16.75,6.1-33.08,13.39-49.98,19.03-33.35,11.12-62.35-1.89-71.28-32.69-2.81-9.7-3.07-21.19-.94-31.1,26.28-122.43,53.2-244.73,80.01-367.05,5.99-27.32,21.58-43.3,45.79-47.3,21.34-3.52,42.6,6.24,54.27,24.75,9.31,14.78,8.86,30.6,5.96,47.01-12.8,72.65-25.38,145.34-37.98,218.02-.62,3.59-1.09,7.28-.96,10.9.25,6.99,3.99,11.2,11.03,8.74,26.31-9.21,53.47-8.44,80.67-7.84,52.33,1.14,104.69,1.63,156.98,3.71,13.03.52,26.13,5.23,38.72,9.46,15.21,5.11,19.65,2.24,16.93-13.98-5.49-32.78-11.41-65.49-17.23-98.22-8.29-46.69-16.85-93.33-24.89-140.06-5.02-29.16,13.41-56.04,41.75-61.97,29.05-6.08,56.96,11.16,63.87,40.6,10.28,43.78,19.78,87.75,29.57,131.64,18.17,81.48,36.31,162.97,54.48,244.45,4.91,22.03,2.36,42.34-15.54,57.9-18.02,15.67-38.36,17.15-60.24,8.17-18.74-7.69-37.86-14.47-56.81-21.64-21.36-8.09-28.6-3.22-28.6,19.46-.02,109.21,0,218.42,0,327.63,0,4.81,0,9.63,0,15.7Z"/>
  <path class="cls-1" d="m955.16,669.1c-63.75-.11-114.23-50.98-113.88-114.76.34-62.89,51.34-113.53,114.26-113.45,62.67.08,113.89,51.14,114.18,113.83.3,63.23-51.04,114.49-114.55,114.38Z"/>
  <path class="cls-1" d="m839.56,196.1c1.7,1.9,5.41,4.52,7.02,8.08,11.12,24.71,22.15,49.48,32.27,74.61,1.56,3.87-1.68,9.67-2.7,14.58-4.35-2.4-10.96-3.74-12.68-7.38-11.56-24.5-22.23-49.43-32.86-74.36-3.77-8.84-.6-15.44,8.95-15.53Z"/>
  <path class="cls-1" d="m1003.43,285.5c1.69-4.52,2.44-6.82,3.4-9.04,10.29-23.73,20.6-47.44,30.92-71.15,2.58-5.93,6.02-11.72,13.49-8.31,7.31,3.34,5.5,9.65,2.86,15.66-10.89,24.78-21.42,49.73-32.82,74.28-1.52,3.28-7.24,6.23-11.05,6.26-2.48.02-5-5.52-6.8-7.71Z"/>
  <path class="cls-1" d="m752.97,244.92c3.42,2.66,6.62,4.43,8.89,7.01,17.07,19.48,33.97,39.12,50.91,58.72,4.02,4.65,6.83,9.55,1.04,14.74-5.87,5.27-10.39,1.75-14.39-2.86-17.25-19.87-34.61-39.63-51.46-59.84-2.38-2.85-3.09-8-2.67-11.89.22-2.04,4.56-3.64,7.68-5.89Z"/>
  <path class="cls-1" d="m1077.12,329.21c-2.91-2.22-6.85-3.69-7.39-5.97-.8-3.4-.43-8.33,1.59-10.92,8.21-10.52,17.23-20.41,25.97-30.52,8.74-10.11,17-20.71,26.53-30,3.05-2.97,9.51-2.43,14.42-3.5-.39,4.96,1.11,11.46-1.47,14.63-16.63,20.38-34.11,40.08-51.44,59.88-2.02,2.3-4.89,3.86-8.21,6.4Z"/>
</svg>