<?xml version="1.0" encoding="UTF-8"?>
<svg id="Layer_1" data-name="Layer 1" xmlns="http://www.w3.org/2000/svg" viewBox="0 0 1920 1920">
  <defs>
    <style>
      .cls-1 {
        fill: #8447a0;
        stroke-width: 0px;
      }
    </style>
  </defs>
  <path class="cls-1" d="m1074.04,388.04c6.97,0,13.93,0,20.9,0,5.49.6,10.99,1.19,16.48,1.79,57.2,6.22,106.99,29.14,150.18,66.79,8.1,7.06,15.73,14.64,23.28,21.7-18.76,4.61-36.93,8.31-54.64,13.56-51.54,15.29-97.97,39.79-135.41,79.16-56.97,59.91-88.99,130.06-89.4,214.04-.25,51.27,10.35,99.34,33.69,144.82,17.28,33.67,41.13,62.18,68.49,87.99,8.04,7.59,16.01,15.25,24.34,23.18-2.05,1.91-3.49,3.38-5.06,4.67-41.88,34.58-83.9,69.06-129.38,98.83-38.99,25.52-78.96,49.55-118.44,74.33-5.08,3.19-9.63,3.22-14.84.15-34.95-20.63-70.52-40.28-104.92-61.79-71.59-44.77-138.58-95.65-199.37-154.45-55.56-53.75-104.12-112.8-139.06-182.28-30.8-61.24-45.3-125.13-34.14-193.91,12.1-74.53,47.86-135.05,106.92-181.37,67.37-52.82,143.8-66.98,226.7-48.95,41.78,9.09,77.55,30.23,110.11,57.22,13.72,11.37,27,23.26,40.52,34.95,14.91-12.81,29.39-25.5,44.14-37.85,35.39-29.64,75.54-49.45,121.17-57.47,12.49-2.2,25.15-3.43,37.74-5.1Z"/>
  <path class="cls-1" d="m1094.51,788.34c-4.69-124.1,106.91-217.5,206.18-221.69,144.98-6.12,237.29,111.48,236.3,221.33-1.09,121.52-95.56,219.46-217.78,222.51-127.58,3.19-230.35-107.4-224.7-222.15Zm87.95,44.24h265.62v-87.67h-265.62v87.67Z"/>
</svg>