<?xml version="1.0" encoding="UTF-8"?>
<svg id="Layer_1" data-name="Layer 1" xmlns="http://www.w3.org/2000/svg" viewBox="0 0 1920 1920">
  <defs>
    <style>
      .cls-1 {
        stroke-width: 0px;
      }
    </style>
  </defs>
  <g>
    <path class="cls-1" d="m145.02,1492.6h28.47l65.54,194.56h-26.69l-33.51-108.55c-6.82-21.65-13.35-43-19.28-65.55h-1.19c-6.23,22.54-12.46,43.89-19.28,65.55l-34.11,108.55h-25.51l65.54-194.56Zm-30.84,115.37h89.27v20.17h-89.27v-20.17Z"/>
    <path class="cls-1" d="m271.06,1632.59v-89.57h24.62v86.31c0,26.99,9.49,40.04,33.22,40.04,16.61,0,28.77-7.71,44.78-26.4v-99.95h24.62v144.14h-20.46l-2.08-25.21h-1.19c-14.53,16.91-31.44,28.77-53.68,28.77-34.11,0-49.83-20.17-49.83-58.13Z"/>
    <path class="cls-1" d="m487.26,1631.11v-68.21h-40.93v-18.39l41.82-1.48,3.26-46.27h20.46v46.27h70.59v19.87h-70.59v68.51c0,25.8,8.6,39.15,36.48,39.15,13.35,0,24.02-2.67,34.4-6.53l5.34,18.09c-13.05,4.75-26.99,8.6-45.08,8.6-42.12,0-55.76-24.02-55.76-59.61Z"/>
    <path class="cls-1" d="m621.91,1615.39c0-48.34,33.22-75.93,71.18-75.93s71.18,27.58,71.18,75.93-33.22,75.33-71.18,75.33-71.18-27.58-71.18-75.33Zm117.15,0c0-33.22-18.39-55.46-45.97-55.46s-45.97,22.24-45.97,55.46,18.39,54.87,45.97,54.87,45.97-21.95,45.97-54.87Z"/>
    <path class="cls-1" d="m802.22,1614.79c0-46.86,35-75.33,73.55-75.33,41.52,0,65.84,26.99,65.84,67.62,0,5.64-.59,10.97-1.19,14.83h-121.9v-18.98h107.36l-6.23,6.82c0-34.11-16.91-51.01-43.3-51.01s-49.83,20.17-49.83,56.05,24.32,56.35,56.35,56.35c17.2,0,30.84-5.34,43.89-13.64l8.9,16.02c-14.24,9.49-32.62,17.2-55.76,17.2-43.3,0-77.71-27.88-77.71-75.93Z"/>
    <path class="cls-1" d="m981.06,1668.18l11.27-16.31c16.61,11.86,36.18,19.58,62.58,19.58,24.32,0,36.18-10.08,36.18-22.24,0-10.97-5.64-18.68-44.78-26.69-37.67-7.71-56.35-20.46-56.35-42.12,0-23.13,20.46-40.93,59.91-40.93,21.95,0,43.89,8.6,58.13,18.39l-11.86,15.72c-13.35-9.19-29.96-15.13-48.34-15.13-24.32,0-33.22,9.79-33.22,20.76,0,12.46,12.46,17.79,42.12,24.02,47.75,10.38,59.32,22.24,59.32,44.49,0,23.43-22.84,43-64.06,43-28.18,0-53.39-10.38-70.88-22.54Z"/>
    <path class="cls-1" d="m1199.04,1631.11v-68.21h-40.93v-18.39l41.82-1.48,3.26-46.27h20.46v46.27h70.59v19.87h-70.59v68.51c0,25.8,8.6,39.15,36.48,39.15,13.35,0,24.02-2.67,34.4-6.53l5.34,18.09c-13.05,4.75-26.99,8.6-45.08,8.6-42.12,0-55.76-24.02-55.76-59.61Z"/>
    <path class="cls-1" d="m1409.31,1562.89h-66.73v-19.87h91.35v144.14h-24.62v-124.27Zm-9.79-69.1c0-11.27,8.3-18.98,19.58-18.98s19.57,7.71,19.57,18.98-8.3,18.98-19.57,18.98-19.58-7.42-19.58-18.98Z"/>
    <path class="cls-1" d="m1511.03,1543.02h19.57l2.08,18.98h.59c7.41-13.35,16.31-22.54,32.92-22.54,14.24,0,23.13,8.3,27.29,24.91,8.3-15.42,17.2-24.91,33.81-24.91,20.17,0,32.03,15.72,32.03,44.49v103.21h-24.32v-101.43c0-16.61-4.75-25.21-15.42-25.21-10.08,0-15.42,7.41-23.13,22.24v104.4h-22.54v-101.43c0-16.61-4.15-25.21-14.83-25.21-10.08,0-16.61,7.41-23.73,22.24v104.4h-24.32v-144.14Z"/>
    <path class="cls-1" d="m1695.5,1649.79c0-32.33,30.25-48.05,104.69-53.98-.89-19.57-10.38-36.18-38.26-36.18-18.69,0-37.07,8.9-50.42,17.2l-9.79-16.61c14.83-9.49,39.15-20.76,64.36-20.76,39.45,0,58.72,23.43,58.72,59.32v88.38h-20.46l-2.08-19.57h-.89c-15.72,12.46-36.48,23.13-56.65,23.13-26.99,0-49.23-15.12-49.23-40.93Zm104.69-.3v-37.37c-61.69,4.75-80.37,16.91-80.37,35.89,0,16.31,14.83,22.84,31.44,22.84s32.33-7.71,48.94-21.35Z"/>
  </g>
  <g>
    <path class="cls-1" d="m1074.04,388.04c6.97,0,13.93,0,20.9,0,5.49.6,10.99,1.19,16.48,1.79,57.2,6.22,106.99,29.14,150.18,66.79,8.1,7.06,15.73,14.64,23.28,21.7-18.76,4.61-36.93,8.31-54.64,13.56-51.54,15.29-97.97,39.79-135.41,79.16-56.97,59.91-88.99,130.06-89.4,214.04-.25,51.27,10.35,99.34,33.69,144.82,17.28,33.67,41.13,62.18,68.49,87.99,8.04,7.59,16.01,15.25,24.34,23.18-2.05,1.91-3.49,3.38-5.06,4.67-41.88,34.58-83.9,69.06-129.38,98.83-38.99,25.52-78.96,49.55-118.44,74.33-5.08,3.19-9.63,3.22-14.84.15-34.95-20.63-70.52-40.28-104.92-61.79-71.59-44.77-138.58-95.65-199.37-154.45-55.56-53.75-104.12-112.8-139.06-182.28-30.8-61.24-45.3-125.13-34.14-193.91,12.1-74.53,47.86-135.05,106.92-181.37,67.37-52.82,143.8-66.98,226.7-48.95,41.78,9.09,77.55,30.23,110.11,57.22,13.72,11.37,27,23.26,40.52,34.95,14.91-12.81,29.39-25.5,44.14-37.85,35.39-29.64,75.54-49.45,121.17-57.47,12.49-2.2,25.15-3.43,37.74-5.1Z"/>
    <path class="cls-1" d="m1094.51,788.34c-4.69-124.1,106.91-217.5,206.18-221.69,144.98-6.12,237.29,111.48,236.3,221.33-1.09,121.52-95.56,219.46-217.78,222.51-127.58,3.19-230.35-107.4-224.7-222.15Zm87.95,44.24h265.62v-87.67h-265.62v87.67Z"/>
  </g>
</svg>