<?xml version="1.0" encoding="UTF-8"?>
<svg id="Layer_1" data-name="Layer 1" xmlns="http://www.w3.org/2000/svg" viewBox="0 0 1920 1920">
  <defs>
    <style>
      .cls-1 {
        stroke-width: 0px;
      }
    </style>
  </defs>
  <g>
    <path class="cls-1" d="m339.69,1486.33h57.66c41.54,0,69.75,13.95,69.75,49.6,0,20.15-11.47,38.13-35.65,44.33v1.24c29.76,4.65,47.12,20.77,47.12,48.67,0,39.99-31,59.52-76.57,59.52h-62.31v-203.36Zm53.32,85.56c34.72,0,48.67-11.16,48.67-33.79s-16.12-30.07-47.43-30.07h-28.83v63.86h27.59Zm5.27,96.1c34.72,0,54.87-11.47,54.87-39.06,0-25.11-19.22-35.34-54.87-35.34h-32.86v74.4h32.86Z"/>
    <path class="cls-1" d="m518.87,1632.64v-93.62h25.73v90.21c0,28.21,9.92,41.85,34.72,41.85,17.36,0,30.07-8.06,46.81-27.59v-104.47h25.73v150.66h-21.39l-2.17-26.35h-1.24c-15.19,17.67-32.86,30.07-56.11,30.07-35.65,0-52.08-21.08-52.08-60.76Z"/>
    <path class="cls-1" d="m725.95,1539.03h21.39l2.48,35.65h.62c15.81-24.49,39.37-39.37,67.27-39.37,11.16,0,20.46,1.55,29.76,6.2l-5.89,22.01c-10.54-3.41-16.12-4.96-27.9-4.96-22.63,0-44.02,11.47-62,43.09v88.04h-25.73v-150.66Z"/>
    <path class="cls-1" d="m895.83,1539.03h21.08l2.17,25.42h1.24c15.81-16.43,33.17-29.14,56.73-29.14,35.65,0,52.08,21.08,52.08,60.76v93.62h-25.73v-90.21c0-28.52-9.92-41.85-34.41-41.85-17.98,0-30.07,8.99-47.43,26.97v105.09h-25.73v-150.66Z"/>
    <path class="cls-1" d="m1071.6,1614.67c0-50.53,34.72-79.36,74.4-79.36s74.4,28.83,74.4,79.36-34.72,78.74-74.4,78.74-74.4-28.83-74.4-78.74Zm122.45,0c0-34.72-19.22-57.97-48.05-57.97s-48.05,23.25-48.05,57.97,19.22,57.35,48.05,57.35,48.05-22.94,48.05-57.35Z"/>
    <path class="cls-1" d="m1262.87,1632.64v-93.62h25.73v90.21c0,28.21,9.92,41.85,34.72,41.85,17.36,0,30.07-8.06,46.81-27.59v-104.47h25.73v150.66h-21.39l-2.17-26.35h-1.24c-15.19,17.67-32.86,30.07-56.11,30.07-35.65,0-52.08-21.08-52.08-60.76Z"/>
    <path class="cls-1" d="m1488.86,1631.09v-71.3h-42.78v-19.22l43.71-1.55,3.41-48.36h21.39v48.36h73.78v20.77h-73.78v71.61c0,26.97,8.99,40.92,38.13,40.92,13.95,0,25.11-2.79,35.96-6.82l5.58,18.91c-13.64,4.96-28.21,8.99-47.12,8.99-44.02,0-58.28-25.11-58.28-62.31Z"/>
  </g>
  <path class="cls-1" d="m831.24,584.49c24.4-58.22,66.23-92.17,129.27-91.99,62.64.17,103.84,34.56,128.49,91.89,1.72-1.93,3.22-3.47,4.56-5.13,21.1-26.31,60.75-31.3,84.12-6.93,63.46,66.16,124.88,134.24,167.37,216.69,10.18,19.75,18.26,40.36,17.95,63.2-.45,33.37-17.33,55.69-47.1,68.93-27.75,12.34-57.41,14.45-87.07,13.49-33.33-1.09-66.62-3.9-99.87-6.62-7.82-.64-11.46.9-11.78,9.08-1.14,29.93-3.81,59.86-3.53,89.77.49,52.77,2.57,105.53,4.3,158.28,1.2,36.82-18.57,56.71-55.62,56.54-68.13-.32-136.26-.06-204.4-.12-36.36-.03-56.63-21.49-55.68-57.76,1.65-63.32,3.22-126.64,4.04-189.97.25-19-2.41-38.03-3.14-57.07-.34-9-4.6-10.13-12.44-9.66-39.74,2.41-79.52,5.69-119.29,5.75-20.04.03-40.87-3.73-59.98-9.95-43.68-14.22-63.31-54.26-50.63-98.46,10.58-36.89,30.69-68.88,52.49-99.83,37.35-53.03,80-101.71,124.76-148.52,27.8-29.07,63.16-25.69,93.19,8.4Zm-139.97,232.87c11.68-.63,20.86-.94,30.01-1.64,49.22-3.77,98.45-7.55,147.65-11.58,6.57-.54,9.51,1.66,11.78,7.85,12.56,34.15,25.59,68.13,38.49,102.15,2.09,5.51,4.32,10.97,7.48,18.96,6.92-30.28,13.18-57.69,19.52-85.45-11.89-2.73-15.46-10.19-14.66-20.74.41-5.42-.19-10.93.29-16.34.77-8.67,5.64-13.78,14.53-14.04,9.19-.27,18.52-.95,27.54.32,4.63.65,10.51,4.19,12.7,8.15,7.45,13.43.75,35.8-12.4,44.14,6.23,26.93,12.5,54.01,19.31,83.44,2.29-5.29,3.59-8.02,4.67-10.84,13.6-35.58,27.46-71.06,40.5-106.84,3-8.23,7.02-10.78,15.42-10.01,35.6,3.25,71.24,6.07,106.87,8.93,21.56,1.73,43.14,3.23,67.17,5.02-40.05-60.93-85.69-114.03-134.02-166.56-13.67,65.07-64.42,105.86-121.22,111.2-34.58,3.25-66.15-5.71-94.01-26.72-27.87-21.02-44.85-49.19-52.84-84.46-48.98,52.24-93.81,105.43-134.8,165.07Z"/>
  <path class="cls-1" d="m724.4,387.85c19.82.04,37.3,6.83,52.97,18.58,24.15,18.1,42.63,41,55.57,68.13,2.09,4.38,2.46,12.03-.04,15.59-4.31,6.12-10.23,1.6-14.97-1.94-22.97-17.15-48.11-22.25-76.19-15.38-12.44,3.04-25.51,5.03-38.28,4.95-30.63-.19-45.48-21.68-36.67-51.23,6.98-23.41,29.7-38.68,57.6-38.7Z"/>
  <path class="cls-1" d="m1202.09,460.25c-10.05-.95-18.17-1.71-26.29-2.48-26.08-2.47-47.99,6.64-66.89,24.11-4.28,3.96-8.51,8.6-15.02,4.39-7.01-4.53-5.55-10.8-3.04-17.19,13.09-33.24,31.92-62.28,61.76-82.97,19.59-13.58,41.41-17.18,64.17-10.68,19.35,5.53,32.12,18.28,36.39,38.69,4.99,23.88-6.56,41.22-30.62,44.82-7.35,1.1-14.89.99-20.47,1.32Z"/>
  <path class="cls-1" d="m999.03,320.97c-1.25,38.08-16,71.06-39.18,100.59-2.01,2.56-7.87,4.89-10.13,3.75-2.99-1.51-5.31-6.39-5.88-10.13-.63-4.17,1.1-8.67,1.66-13.05,3.19-24.85-4.98-46.04-20.53-65.07-7.29-8.92-14.73-17.93-20.46-27.85-8.46-14.64-13.33-30.33-.92-45.57,11.41-14.02,32.88-19.45,51.2-13.58,23.28,7.45,42.31,33.1,44.2,59.71.26,3.72.04,7.47.04,11.21Z"/>
  <path class="cls-1" d="m891.22,412.15c-1.37,9.14-2.16,16.93-3.89,24.5-.53,2.34-3.59,4.11-5.49,6.14-1.69-1.85-4.5-3.48-4.89-5.57-3.1-16.32-13.65-25.97-27.86-32.75-3.34-1.59-6.48-3.75-9.4-6.04-7.22-5.66-13.59-11.92-9.21-22.33,4.03-9.57,15.55-16.24,25.75-14.44,14.52,2.56,25.01,10.81,29.62,24.87,2.82,8.61,3.79,17.82,5.36,25.62Z"/>
  <path class="cls-1" d="m1058.41,362.24c11.57-.17,20.3,5.91,22.79,14.69,2.7,9.55-3.75,14.38-10.24,18.92-2.74,1.91-5.91,3.34-9.07,4.52-11.79,4.41-20.18,11.92-24.27,24.21-.84,2.52-4.26,4.18-6.49,6.23-1.27-2.48-3.78-5.06-3.6-7.43,1.03-13.34,1.03-27.09,4.62-39.8,3.62-12.81,14.23-20.2,26.26-21.33Z"/>
</svg>