<?xml version="1.0" encoding="UTF-8"?>
<svg id="Layer_1" data-name="Layer 1" xmlns="http://www.w3.org/2000/svg" viewBox="0 0 1920 1920">
  <defs>
    <style>
      .cls-1 {
        stroke-width: 0px;
      }
    </style>
  </defs>
  <g>
    <path class="cls-1" d="m1129.55,989.08c0,54.99.37,109.98-.29,164.96-.14,11.66-2.24,24-6.59,34.75-7.47,18.47-23.25,29.04-42.5,32.11-41.5,6.62-72.07-21.75-72.55-63.08-.4-33.79-.1-67.59-.1-101.38,0-56.42-.12-112.84.07-169.26.05-14.28-3.49-26.3-17.75-32.12-4.81-1.96-10.43-2.68-15.69-2.69-67.02-.18-134.03-.38-201.05-.02-32.48.17-58.7-12.02-79.12-37-9.97-12.19-16.94-26.41-18.37-41.75-1.61-17.26-1.62-35.1.94-52.2,3.07-20.47,7.67-41.16,15.1-60.41,9.8-25.37,21.76-50.11,34.96-73.92,30.68-55.33,73.02-100.48,124.87-136.67,27.42-19.14,56.24-35.79,87.86-47.11,18.19-6.51,36.28-13.48,54.82-18.81,15.98-4.59,32.01-.57,46.95,5.41,20.14,8.07,36.28,21.4,46.18,41.21,11.95,23.92,14.39,48.94,4.02,73.64-5.52,13.14-1.75,23.18,5.08,33.14,12.54,18.3,25.65,36.21,38.63,54.2,4.83,6.7,9.47,4.5,13.75-.8,22.04-27.29,44.11-54.55,66.1-81.87,13.95-17.33,27.34-35.14,41.83-52.01,11.95-13.91,31.74-17.79,46.8-12.95,21.4,6.88,34.08,27.36,33.5,44.66-.42,12.53-4.56,22.7-11.97,32.17-28.12,35.96-55.79,72.29-84.46,107.81-18.67,23.13-38.46,45.63-65.53,59.5-23.24,11.91-46.9,13.45-70.03-.93-33.34-20.73-57.25-50.32-77.67-83.11-5.87-9.43-10.96-19.33-16.62-28.89-2.8-4.73-5.84-5.84-11.94-3.23-33.68,14.36-63.25,34.75-86.55,62.63-15.4,18.43-28.76,39.03-40.19,60.2-10.39,19.26,5.15,35.76,23.46,35.44,48.96-.85,97.95.3,146.91-.45,35.34-.54,72.52,25.76,80.96,56.24,3.37,12.18,5.78,25.05,5.93,37.64.63,54.98.27,109.97.27,164.96Z"/>
    <path class="cls-1" d="m583.17,828.27c-.01-127.43.06-254.86-.17-382.28-.01-7.87,2.02-10.68,10.14-10.3,13.14.61,26.35.4,39.5-.05,6.38-.22,8.32,1.75,8.31,8.25-.19,138.88-.17,277.76-.2,416.65,0,14.36-.06,14.34,13.83,14.34,92.49,0,184.99-.01,277.48,0q12.5,0,12.48,12.16c0,107.67,0,215.34,0,323.01,0,11.17-.43,11.68-11.47,11.75-11.74.07-23.5-.36-35.22.15-8.23.36-10.84-2.57-10.81-10.87.28-75.31.17-150.62.18-225.93q0-21.21-20.92-21.21c-71.02,0-142.03,0-213.05,0-12.47,0-12.55.17-12.55,12.36.02,78.17-.12,156.35.19,234.52.03,8.64-2.26,11.68-11.07,11.17-12.27-.7-24.63-.55-36.92-.02-7.48.33-9.94-2.05-9.92-9.69.23-95.36.16-190.71.17-286.07,0-32.64,0-65.29-.01-97.93Z"/>
    <path class="cls-1" d="m1186.26,254.09c55.43-2.87,103.9,47.97,102.63,103.22-1.29,55.71-44.61,101.97-102.73,101.61-59.93-.37-103.15-44.88-103.24-103.22-.09-55.19,43.21-102.88,103.35-101.6Z"/>
  </g>
  <g>
    <path class="cls-1" d="m149.97,1486.33h50.22c61.07,0,94.24,36.27,94.24,100.75s-33.17,102.61-93,102.61h-51.46v-203.36Zm48.36,181.97c46.19,0,69.13-29.76,69.13-81.22s-22.94-79.36-69.13-79.36h-22.32v160.58h22.32Z"/>
    <path class="cls-1" d="m330.08,1614.04c0-48.98,36.58-78.74,76.88-78.74,43.4,0,68.82,28.21,68.82,70.68,0,5.89-.62,11.47-1.24,15.5h-127.41v-19.84h112.22l-6.51,7.13c0-35.65-17.67-53.32-45.26-53.32s-52.08,21.08-52.08,58.59,25.42,58.9,58.9,58.9c17.98,0,32.24-5.58,45.88-14.26l9.3,16.74c-14.88,9.92-34.1,17.98-58.28,17.98-45.26,0-81.22-29.14-81.22-79.36Z"/>
    <path class="cls-1" d="m523.83,1539.03h21.08l2.17,19.22h.93c13.95-13.33,33.79-22.94,52.08-22.94,40.61,0,62.31,30.07,62.31,76.88,0,51.15-32.24,81.22-68.51,81.22-13.95,0-31.31-7.13-44.95-19.53h-.62l1.24,28.52v50.84h-25.73v-214.21Zm112.22,73.16c0-33.17-12.4-55.18-42.47-55.18-13.33,0-28.83,6.82-44.02,22.32v75.02c13.95,12.71,29.76,17.36,39.99,17.36,26.66,0,46.5-22.32,46.5-59.52Z"/>
    <path class="cls-1" d="m725.95,1539.03h21.39l2.48,35.65h.62c15.81-24.49,39.37-39.37,67.27-39.37,11.16,0,20.46,1.55,29.76,6.2l-5.89,22.01c-10.54-3.41-16.12-4.96-27.9-4.96-22.63,0-44.02,11.47-62,43.09v88.04h-25.73v-150.66Z"/>
    <path class="cls-1" d="m888.08,1614.04c0-48.98,36.58-78.74,76.88-78.74,43.4,0,68.82,28.21,68.82,70.68,0,5.89-.62,11.47-1.24,15.5h-127.41v-19.84h112.22l-6.51,7.13c0-35.65-17.67-53.32-45.26-53.32s-52.08,21.08-52.08,58.59,25.42,58.9,58.9,58.9c17.98,0,32.24-5.58,45.88-14.26l9.3,16.74c-14.88,9.92-34.1,17.98-58.28,17.98-45.26,0-81.22-29.14-81.22-79.36Z"/>
    <path class="cls-1" d="m1075.01,1669.84l11.78-17.05c17.36,12.4,37.82,20.46,65.41,20.46,25.42,0,37.82-10.54,37.82-23.25,0-11.47-5.89-19.53-46.81-27.9-39.37-8.06-58.9-21.39-58.9-44.02,0-24.18,21.39-42.78,62.62-42.78,22.94,0,45.88,8.99,60.76,19.22l-12.4,16.43c-13.95-9.61-31.31-15.81-50.53-15.81-25.42,0-34.72,10.23-34.72,21.7,0,13.02,13.02,18.6,44.02,25.11,49.91,10.85,62,23.25,62,46.5,0,24.49-23.87,44.95-66.96,44.95-29.45,0-55.8-10.85-74.09-23.56Z"/>
    <path class="cls-1" d="m1261.01,1669.84l11.78-17.05c17.36,12.4,37.82,20.46,65.41,20.46,25.42,0,37.82-10.54,37.82-23.25,0-11.47-5.89-19.53-46.81-27.9-39.37-8.06-58.9-21.39-58.9-44.02,0-24.18,21.39-42.78,62.62-42.78,22.94,0,45.88,8.99,60.76,19.22l-12.4,16.43c-13.95-9.61-31.31-15.81-50.53-15.81-25.42,0-34.72,10.23-34.72,21.7,0,13.02,13.02,18.6,44.02,25.11,49.91,10.85,62,23.25,62,46.5,0,24.49-23.87,44.95-66.96,44.95-29.45,0-55.8-10.85-74.09-23.56Z"/>
    <path class="cls-1" d="m1449.8,1650.62c0-33.79,31.62-50.22,109.43-56.42-.93-20.46-10.85-37.82-39.99-37.82-19.53,0-38.75,9.3-52.7,17.98l-10.23-17.36c15.5-9.92,40.92-21.7,67.27-21.7,41.23,0,61.38,24.49,61.38,62v92.38h-21.39l-2.17-20.46h-.93c-16.43,13.02-38.13,24.18-59.21,24.18-28.21,0-51.46-15.81-51.46-42.78Zm52.39-165.85c-9.3,0-13.64,9.92-14.57,24.49l-17.05-.93c.93-24.18,9.92-42.16,31.31-42.16s30.07,26.04,44.64,26.04c8.99,0,13.33-10.23,14.26-24.49l17.05,1.24c-.93,23.87-9.92,41.85-31.31,41.85s-30.07-26.04-44.33-26.04Zm57.04,165.54v-39.06c-64.48,4.96-84.01,17.67-84.01,37.51,0,17.05,15.5,23.87,32.86,23.87s33.79-8.06,51.15-22.32Z"/>
    <path class="cls-1" d="m1629.6,1614.67c0-50.53,34.72-79.36,74.4-79.36s74.4,28.83,74.4,79.36-34.72,78.74-74.4,78.74-74.4-28.83-74.4-78.74Zm122.45,0c0-34.72-19.22-57.97-48.05-57.97s-48.05,23.25-48.05,57.97,19.22,57.35,48.05,57.35,48.05-22.94,48.05-57.35Z"/>
  </g>
</svg>