<?xml version="1.0" encoding="UTF-8"?>
<svg id="Layer_1" data-name="Layer 1" xmlns="http://www.w3.org/2000/svg" viewBox="0 0 1920 1920">
  <defs>
    <style>
      .cls-1 {
        fill: #8447a0;
        stroke-width: 0px;
      }
    </style>
  </defs>
  <path class="cls-1" d="m1129.55,989.08c0,54.99.37,109.98-.29,164.96-.14,11.66-2.24,24-6.59,34.75-7.47,18.47-23.25,29.04-42.5,32.11-41.5,6.62-72.07-21.75-72.55-63.08-.4-33.79-.1-67.59-.1-101.38,0-56.42-.12-112.84.07-169.26.05-14.28-3.49-26.3-17.75-32.12-4.81-1.96-10.43-2.68-15.69-2.69-67.02-.18-134.03-.38-201.05-.02-32.48.17-58.7-12.02-79.12-37-9.97-12.19-16.94-26.41-18.37-41.75-1.61-17.26-1.62-35.1.94-52.2,3.07-20.47,7.67-41.16,15.1-60.41,9.8-25.37,21.76-50.11,34.96-73.92,30.68-55.33,73.02-100.48,124.87-136.67,27.42-19.14,56.24-35.79,87.86-47.11,18.19-6.51,36.28-13.48,54.82-18.81,15.98-4.59,32.01-.57,46.95,5.41,20.14,8.07,36.28,21.4,46.18,41.21,11.95,23.92,14.39,48.94,4.02,73.64-5.52,13.14-1.75,23.18,5.08,33.14,12.54,18.3,25.65,36.21,38.63,54.2,4.83,6.7,9.47,4.5,13.75-.8,22.04-27.29,44.11-54.55,66.1-81.87,13.95-17.33,27.34-35.14,41.83-52.01,11.95-13.91,31.74-17.79,46.8-12.95,21.4,6.88,34.08,27.36,33.5,44.66-.42,12.53-4.56,22.7-11.97,32.17-28.12,35.96-55.79,72.29-84.46,107.81-18.67,23.13-38.46,45.63-65.53,59.5-23.24,11.91-46.9,13.45-70.03-.93-33.34-20.73-57.25-50.32-77.67-83.11-5.87-9.43-10.96-19.33-16.62-28.89-2.8-4.73-5.84-5.84-11.94-3.23-33.68,14.36-63.25,34.75-86.55,62.63-15.4,18.43-28.76,39.03-40.19,60.2-10.39,19.26,5.15,35.76,23.46,35.44,48.96-.85,97.95.3,146.91-.45,35.34-.54,72.52,25.76,80.96,56.24,3.37,12.18,5.78,25.05,5.93,37.64.63,54.98.27,109.97.27,164.96Z"/>
  <path class="cls-1" d="m583.17,828.27c-.01-127.43.06-254.86-.17-382.28-.01-7.87,2.02-10.68,10.14-10.3,13.14.61,26.35.4,39.5-.05,6.38-.22,8.32,1.75,8.31,8.25-.19,138.88-.17,277.76-.2,416.65,0,14.36-.06,14.34,13.83,14.34,92.49,0,184.99-.01,277.48,0q12.5,0,12.48,12.16c0,107.67,0,215.34,0,323.01,0,11.17-.43,11.68-11.47,11.75-11.74.07-23.5-.36-35.22.15-8.23.36-10.84-2.57-10.81-10.87.28-75.31.17-150.62.18-225.93q0-21.21-20.92-21.21c-71.02,0-142.03,0-213.05,0-12.47,0-12.55.17-12.55,12.36.02,78.17-.12,156.35.19,234.52.03,8.64-2.26,11.68-11.07,11.17-12.27-.7-24.63-.55-36.92-.02-7.48.33-9.94-2.05-9.92-9.69.23-95.36.16-190.71.17-286.07,0-32.64,0-65.29-.01-97.93Z"/>
  <path class="cls-1" d="m1186.26,254.09c55.43-2.87,103.9,47.97,102.63,103.22-1.29,55.71-44.61,101.97-102.73,101.61-59.93-.37-103.15-44.88-103.24-103.22-.09-55.19,43.21-102.88,103.35-101.6Z"/>
</svg>