<?xml version="1.0" encoding="UTF-8"?>
<svg id="Layer_1" data-name="Layer 1" xmlns="http://www.w3.org/2000/svg" xmlns:xlink="http://www.w3.org/1999/xlink" viewBox="0 0 80 80">
  <defs>
    <style>
      .cls-1 {
        fill: url(#linear-gradient-38);
      }

      .cls-1, .cls-2, .cls-3, .cls-4, .cls-5, .cls-6, .cls-7, .cls-8, .cls-9, .cls-10, .cls-11, .cls-12, .cls-13, .cls-14, .cls-15, .cls-16, .cls-17, .cls-18, .cls-19, .cls-20, .cls-21, .cls-22, .cls-23, .cls-24, .cls-25, .cls-26, .cls-27, .cls-28, .cls-29, .cls-30, .cls-31, .cls-32, .cls-33, .cls-34, .cls-35, .cls-36, .cls-37, .cls-38, .cls-39, .cls-40 {
        stroke-width: 0px;
      }

      .cls-2 {
        fill: url(#linear-gradient-12);
      }

      .cls-3 {
        fill: url(#linear-gradient-17);
      }

      .cls-4 {
        fill: url(#linear-gradient-19);
      }

      .cls-5 {
        fill: url(#linear-gradient-33);
      }

      .cls-6 {
        fill: url(#linear-gradient);
      }

      .cls-7 {
        fill: url(#linear-gradient-21);
      }

      .cls-8 {
        fill: url(#linear-gradient-6);
      }

      .cls-9 {
        fill: url(#linear-gradient-15);
      }

      .cls-10 {
        fill: url(#linear-gradient-11);
      }

      .cls-11 {
        fill: url(#linear-gradient-5);
      }

      .cls-12 {
        fill: url(#linear-gradient-31);
      }

      .cls-13 {
        fill: url(#linear-gradient-34);
      }

      .cls-14 {
        fill: url(#linear-gradient-13);
      }

      .cls-15 {
        fill: url(#linear-gradient-23);
      }

      .cls-16 {
        fill: url(#linear-gradient-25);
      }

      .cls-17 {
        fill: url(#linear-gradient-16);
      }

      .cls-18 {
        fill: url(#linear-gradient-22);
      }

      .cls-19 {
        fill: url(#linear-gradient-35);
      }

      .cls-20 {
        fill: url(#linear-gradient-32);
      }

      .cls-21 {
        fill: url(#linear-gradient-20);
      }

      .cls-22 {
        fill: url(#linear-gradient-14);
      }

      .cls-23 {
        fill: url(#linear-gradient-2);
      }

      .cls-24 {
        fill: url(#linear-gradient-7);
      }

      .cls-25 {
        fill: url(#linear-gradient-39);
      }

      .cls-26 {
        fill: url(#linear-gradient-3);
      }

      .cls-27 {
        fill: url(#linear-gradient-9);
      }

      .cls-28 {
        fill: url(#linear-gradient-27);
      }

      .cls-29 {
        fill: url(#linear-gradient-36);
      }

      .cls-30 {
        fill: url(#linear-gradient-8);
      }

      .cls-31 {
        fill: url(#linear-gradient-24);
      }

      .cls-32 {
        fill: url(#linear-gradient-26);
      }

      .cls-33 {
        fill: url(#linear-gradient-18);
      }

      .cls-34 {
        fill: url(#linear-gradient-30);
      }

      .cls-35 {
        fill: url(#linear-gradient-29);
      }

      .cls-36 {
        fill: #8447a0;
      }

      .cls-37 {
        fill: url(#linear-gradient-28);
      }

      .cls-38 {
        fill: url(#linear-gradient-10);
      }

      .cls-39 {
        fill: url(#linear-gradient-4);
      }

      .cls-40 {
        fill: url(#linear-gradient-37);
      }
    </style>
    <linearGradient id="linear-gradient" x1="-10.09" y1="26.44" x2="57.41" y2="26.44" gradientUnits="userSpaceOnUse">
      <stop offset="0" stop-color="#49789d"/>
      <stop offset=".05" stop-color="#487b9c"/>
      <stop offset=".33" stop-color="#478d99"/>
      <stop offset=".64" stop-color="#469798"/>
      <stop offset="1" stop-color="#469b98"/>
    </linearGradient>
    <linearGradient id="linear-gradient-2" x1="35.66" y1="6.76" x2="37.8" y2="6.76" gradientUnits="userSpaceOnUse">
      <stop offset="0" stop-color="#497a9d"/>
      <stop offset=".14" stop-color="#49789d"/>
      <stop offset="1" stop-color="#469b98"/>
    </linearGradient>
    <linearGradient id="linear-gradient-3" x1="51.29" y1="16.12" x2="53.95" y2="16.12" xlink:href="#linear-gradient-2"/>
    <linearGradient id="linear-gradient-4" x1="39.72" y1="15.05" x2="42.36" y2="15.05" xlink:href="#linear-gradient-2"/>
    <linearGradient id="linear-gradient-5" x1="52.59" y1="19.15" x2="53.98" y2="19.15" xlink:href="#linear-gradient-2"/>
    <linearGradient id="linear-gradient-6" x1="45.94" y1="15.66" x2="46.89" y2="15.66" xlink:href="#linear-gradient-2"/>
    <linearGradient id="linear-gradient-7" x1="33.89" y1="16.04" x2="36.82" y2="16.04" xlink:href="#linear-gradient-2"/>
    <linearGradient id="linear-gradient-8" x1="49.07" y1="10.13" x2="50.81" y2="10.13" xlink:href="#linear-gradient-2"/>
    <linearGradient id="linear-gradient-9" x1="44.91" y1="13.77" x2="46.3" y2="13.77" xlink:href="#linear-gradient-2"/>
    <linearGradient id="linear-gradient-10" x1="41.34" y1="12.66" x2="42.82" y2="12.66" xlink:href="#linear-gradient-2"/>
    <linearGradient id="linear-gradient-11" x1="49.99" y1="12.35" x2="51.81" y2="12.35" xlink:href="#linear-gradient-2"/>
    <linearGradient id="linear-gradient-12" x1="52.65" y1="12.82" x2="54.54" y2="12.82" xlink:href="#linear-gradient-2"/>
    <linearGradient id="linear-gradient-13" x1="39.37" y1="22.01" x2="41.52" y2="22.01" xlink:href="#linear-gradient-2"/>
    <linearGradient id="linear-gradient-14" x1="43.63" y1="8.87" x2="44.96" y2="8.87" xlink:href="#linear-gradient-2"/>
    <linearGradient id="linear-gradient-15" x1="40.92" y1="7.55" x2="42.47" y2="7.55" xlink:href="#linear-gradient-2"/>
    <linearGradient id="linear-gradient-16" x1="36.72" y1="10.08" x2="38.35" y2="10.08" xlink:href="#linear-gradient-2"/>
    <linearGradient id="linear-gradient-17" x1="34.1" y1="20.83" x2="36.31" y2="20.83" xlink:href="#linear-gradient-2"/>
    <linearGradient id="linear-gradient-18" x1="47.01" y1="9.41" x2="48.52" y2="9.41" xlink:href="#linear-gradient-2"/>
    <linearGradient id="linear-gradient-19" x1="39.04" y1="11.53" x2="40.86" y2="11.53" xlink:href="#linear-gradient-2"/>
    <linearGradient id="linear-gradient-20" x1="54.6" y1="16.48" x2="56.57" y2="16.48" xlink:href="#linear-gradient-2"/>
    <linearGradient id="linear-gradient-21" x1="47.59" y1="18.19" x2="49.57" y2="18.19" xlink:href="#linear-gradient-2"/>
    <linearGradient id="linear-gradient-22" x1="33.02" y1="17.88" x2="35.24" y2="17.88" xlink:href="#linear-gradient-2"/>
    <linearGradient id="linear-gradient-23" x1="49.6" y1="20.78" x2="51.82" y2="20.78" xlink:href="#linear-gradient-2"/>
    <linearGradient id="linear-gradient-24" x1="37.87" y1="17.74" x2="40.05" y2="17.74" xlink:href="#linear-gradient-2"/>
    <linearGradient id="linear-gradient-25" x1="37.3" y1="15.28" x2="39.48" y2="15.28" xlink:href="#linear-gradient-2"/>
    <linearGradient id="linear-gradient-26" x1="43.02" y1="6.74" x2="43.98" y2="6.74" xlink:href="#linear-gradient-2"/>
    <linearGradient id="linear-gradient-27" x1="37.37" y1="21.22" x2="38.82" y2="21.22" xlink:href="#linear-gradient-2"/>
    <linearGradient id="linear-gradient-28" x1="35.34" y1="11.68" x2="36.59" y2="11.68" xlink:href="#linear-gradient-2"/>
    <linearGradient id="linear-gradient-29" x1="40.82" y1="19.56" x2="42.22" y2="19.56" xlink:href="#linear-gradient-2"/>
    <linearGradient id="linear-gradient-30" x1="51.23" y1="8.46" x2="52.37" y2="8.46" xlink:href="#linear-gradient-2"/>
    <linearGradient id="linear-gradient-31" x1="48.8" y1="7.52" x2="49.93" y2="7.52" xlink:href="#linear-gradient-2"/>
    <linearGradient id="linear-gradient-32" x1="38.5" y1="13.1" x2="39.83" y2="13.1" xlink:href="#linear-gradient-2"/>
    <linearGradient id="linear-gradient-33" x1="54.89" y1="13.82" x2="56.27" y2="13.82" xlink:href="#linear-gradient-2"/>
    <linearGradient id="linear-gradient-34" x1="42.08" y1="10.16" x2="43.1" y2="10.16" xlink:href="#linear-gradient-2"/>
    <linearGradient id="linear-gradient-35" x1="49.74" y1="14.27" x2="51.04" y2="14.27" xlink:href="#linear-gradient-2"/>
    <linearGradient id="linear-gradient-36" x1="55.22" y1="12.14" x2="56.64" y2="12.14" xlink:href="#linear-gradient-2"/>
    <linearGradient id="linear-gradient-37" x1="45" y1="6.51" x2="45.94" y2="6.51" xlink:href="#linear-gradient-2"/>
    <linearGradient id="linear-gradient-38" x1="15.85" y1="26.66" x2="63.15" y2="26.66" xlink:href="#linear-gradient"/>
    <linearGradient id="linear-gradient-39" x1="37.14" y1="24.6" x2="56.46" y2="24.6" xlink:href="#linear-gradient"/>
  </defs>
  <g>
    <path class="cls-6" d="m36.49,35.79c-.4-.52-.92-.95-1.4-1.41-.23-.22-.48-.42-.76-.57-.13-.08-.28-.14-.42-.19-.15-.05-.31-.11-.47-.15-.11-.02-.21-.04-.32-.05-.82-.07-1.64-.07-2.46-.12-.29-.02-.59-.24-.81-.42-.21-.17-.39-.39-.51-.63-.22-.44-.24-.95-.16-1.43.12-.72.09-1.36-.46-1.92-.27-.28-.31-.68-.21-1.07.11-.38.08-.75-.08-1.11-.26-.59-.11-1.13.31-1.57.49-.51.45-.94.03-1.49-1.11-1.45-1-2.13.55-3.12.54-.35.97-.79,1.45-1.2.64-.56.94-1.23.88-2.09,0-.02,0-.03,0-.05-.05-.8.04-1.61.09-2.41.05-.79.13-1.6.4-2.35.17-.46.41-.89.65-1.32.3-.54.61-1.09,1-1.58.15-.19.32-.37.49-.54.1-.11.21-.22.32-.32.06-.06.12-.11.17-.18.05-.07.1-.15.14-.23.03-.05.08-.15,0-.18-.06-.03-.15,0-.2.04-.65.35-1.22.83-1.68,1.41-.39.48-.7,1.03-1,1.58-.24.43-.48.86-.65,1.32-.28.75-.35,1.56-.4,2.35-.05.8-.14,1.61-.09,2.41,0,.02,0,.03,0,.05.06.86-.24,1.53-.88,2.09-.48.41-.91.86-1.45,1.2-1.55.99-1.66,1.67-.55,3.12.42.55.46.98-.03,1.49-.42.44-.57.98-.31,1.57.16.36.18.73.08,1.11-.11.39-.06.79.21,1.07.55.57.58,1.21.46,1.92-.2,1.14.23,1.96,1.29,2.45.13.06.27.11.41.15.3.08.6.16.9.2.32.04.65.08.97.11.38.04.77.06,1.15.09.22.01.44.02.64.13.2.12.38.29.55.45.48.46,1,.89,1.4,1.41,1.67,2.14,2.85,4.48,2.44,7.31-.14.94-.39,1.43-.91,1.63.16.02.31.05.47.08.1-.03.2-.06.3-.08,0,0,0,0-.02,0,.52-.2.77-.7.91-1.63.41-2.83-.77-5.17-2.44-7.31Z"/>
    <g>
      <path class="cls-23" d="m37.79,6.29c.03.58-.81,1.38-1.4,1.4-.45.02-.78-.17-.73-.65.08-.72.57-1.11,1.26-1.19.38-.04.78-.02.87.43Z"/>
      <path class="cls-26" d="m51.38,16.85c.04.08.1.15.14.22.3.18.6.15.9.08.77-.18,1.2-.72,1.48-1.41.16-.41-.03-.7-.48-.69-.8.02-1.71.23-2.1,1.23,0,.02-.02.04-.02.06,0,0,0,0,0,0,.02.08.01.17.02.26,0,.03.01.07.02.1.01.05.03.1.05.15Z"/>
      <path class="cls-39" d="m42.19,15.89c.06-.07.1-.14.16-.21.07-.35-.08-.61-.25-.87-.44-.65-1.1-.87-1.85-.88-.44,0-.64.28-.47.7.3.74.82,1.52,1.9,1.52.02,0,.04,0,.06,0,0,0,0,0,0,0,.07-.05.16-.07.24-.11.03-.02.06-.04.09-.06.04-.03.08-.06.12-.1Z"/>
      <path class="cls-11" d="m52.94,19.67c.25.06.46-.04.66-.2.21-.17.48-.36.35-.66-.13-.29-.44-.19-.7-.18-.02,0-.03,0-.05.01,0,.02-.03.04-.06.04-.02,0-.04,0-.07.02-.03.02-.06.04-.09.06-.06.04-.11.1-.16.15-.06.06-.11.13-.15.21-.04.08-.06.17-.07.25.03.17.17.25.35.29Z"/>
      <path class="cls-8" d="m46.74,16.17c.06-.1.09-.23.13-.35.04-.11,0-.26,0-.37,0,0,0-.01-.01-.02-.02-.11-.06-.19-.11-.28-.03-.04-.05-.08-.1-.11-.03-.03-.08-.06-.12-.07,0,0,0,0,0,0,0,0-.01,0-.02,0-.02,0-.04-.01-.06-.02-.45.2-.64.73-.42,1.19.15.31.52.33.7.04Z"/>
      <path class="cls-24" d="m36.26,15.35s-.09-.06-.13-.09c-.1-.02-.21-.04-.32-.06-.22-.03-.44-.05-.66-.05-.23,0-.46.02-.68.05-.1.01-.18.04-.27.07-.04.01-.08.03-.12.04-.01.01-.03.03-.05.04-.2.16-.19.35-.07.54.4.62,1,.92,1.76,1.02.17-.04.38-.07.58-.13.28-.08.47-.22.5-.55.05-.46-.25-.71-.56-.88Z"/>
      <path class="cls-30" d="m49.1,10.37c-.06.22-.05.43.14.59.18.16.38.16.6.08.58-.21.95-.74.98-1.4.02-.43-.14-.56-.55-.45-.63.16-1,.57-1.16,1.18Z"/>
      <path class="cls-27" d="m45.23,12.85c-.2.28-.31.6-.32.97.03.31.1.63.33.88.23.25.61.24.8,0,.48-.65.24-1.49-.21-1.91-.21-.2-.43-.18-.6.07Z"/>
      <path class="cls-38" d="m41.97,11.64c-.22-.1-.39-.09-.51.15-.25.49-.12,1.3.28,1.67.19.18.4.36.69.24.31-.12.36-.41.38-.71-.05-.58-.27-1.08-.84-1.35Z"/>
      <path class="cls-10" d="m51.8,11.9c.05-.34-.06-.46-.39-.46-.68,0-1.3.52-1.4,1.19-.07.45.22.72.67.61.61-.15,1.02-.64,1.13-1.33Z"/>
      <path class="cls-2" d="m54.54,12.28c0-.23-.12-.36-.42-.35-.18.04-.44.07-.66.17-.42.19-.72.51-.8.98-.05.3.19.62.47.63.69.02,1.43-.74,1.41-1.43Z"/>
      <path class="cls-14" d="m41.46,21.97c.13-.26.04-.52-.23-.64-.15-.07-.3-.08-.46-.07-.51,0-1.18.44-1.36.91-.08.2-.07.38.16.48.65.29,1.57-.04,1.89-.67Z"/>
      <path class="cls-22" d="m43.64,8.9c-.02.21,0,.42.08.61.1.24.26.47.55.49.28.03.45-.18.57-.4.25-.45.09-1.39-.29-1.73-.22-.19-.43-.17-.6.07-.2.29-.36.6-.31.96Z"/>
      <path class="cls-9" d="m41.31,8.24c.2.26.65.41.87.31.24-.11.34-.44.26-.83-.12-.57-.46-.94-.98-1.16-.31-.13-.51,0-.53.32,0,.08,0,.16,0,.27-.06.4.13.75.38,1.08Z"/>
      <path class="cls-17" d="m37.53,10.99c.45.23.82,0,.82-.5,0-.59-.56-1.28-1.13-1.4-.27-.06-.44.03-.48.32-.1.62.23,1.3.79,1.58Z"/>
      <path class="cls-3" d="m36.12,21.3c.23-.18.25-.51.07-.75-.27-.36-.66-.39-1.21-.4-.17,0-.48.04-.74.26-.14.12-.18.25-.11.42.29.62,1.45.89,1.99.47Z"/>
      <path class="cls-33" d="m48.47,8.6c-.07-.17-.17-.29-.39-.24-.68.16-1.2,1-1.04,1.68.1.41.49.57.83.3.41-.32.69-.71.64-1.27,0-.16.02-.32-.05-.47Z"/>
      <path class="cls-4" d="m40.84,11.8c-.11-.58-.52-.91-1.04-1.1-.21-.08-.45-.15-.64.02-.2.17-.09.4-.05.6.15.67.66,1.14,1.22,1.14.38,0,.59-.26.52-.66Z"/>
      <path class="cls-21" d="m55.18,17.31c.63-.04,1.03-.39,1.29-.93.22-.46.07-.71-.44-.72-.63,0-1.17.35-1.4.92-.15.39.12.75.54.73Z"/>
      <path class="cls-7" d="m48.17,19.01c.63-.04,1.03-.39,1.29-.93.22-.46.07-.71-.44-.72-.63,0-1.17.35-1.4.92-.15.39.12.75.54.73Z"/>
      <path class="cls-18" d="m34.83,18.51c.42-.11.56-.62.25-.94-.4-.42-1.37-.52-1.86-.19-.16.11-.28.26-.13.45.33.41.72.76,1.3.73.14-.02.29-.02.43-.06Z"/>
      <path class="cls-15" d="m51.67,20.36c-.26-.2-.57-.27-.91-.26-.35-.03-.67.09-.95.32-.33.28-.26.73.12.91.59.28,1.44.04,1.81-.51.12-.18.1-.33-.07-.47Z"/>
      <path class="cls-31" d="m39.46,18.39c.26-.06.55-.11.59-.45.04-.35-.11-.57-.47-.73-.47-.21-.95-.17-1.41,0-.33.13-.38.41-.16.68.29.35.66.53,1.17.53.06,0,.17,0,.28-.03Z"/>
      <path class="cls-16" d="m38.89,15.93c.26-.06.55-.11.59-.45.04-.35-.11-.57-.47-.73-.47-.21-.95-.17-1.41,0-.33.13-.38.41-.16.68.29.35.66.53,1.17.53.06,0,.17,0,.28-.03Z"/>
      <path class="cls-32" d="m43.61,7.49c.17-.02.24-.16.3-.29.11-.24.1-.48-.01-.72-.11-.23-.21-.54-.52-.48-.32.06-.34.38-.35.73-.01.15.03.36.16.54.1.15.24.24.43.22Z"/>
      <path class="cls-28" d="m38.31,20.71c-.38,0-.7.13-.88.5-.12.23-.06.39.19.47.35.11.67.02.96-.16.17-.11.29-.3.22-.52-.07-.23-.27-.28-.49-.28Z"/>
      <path class="cls-37" d="m36.06,12.29c.27.1.52-.08.53-.37.01-.37-.57-.92-.94-.86-.22.03-.34.16-.3.4.07.42.32.69.71.83Z"/>
      <path class="cls-35" d="m41.72,20.1c.44,0,.61-.27.43-.61-.17-.33-.74-.56-1.08-.44-.21.07-.32.21-.2.45.19.38.51.56.85.6Z"/>
      <path class="cls-34" d="m51.74,9.09c.36-.17.59-.44.62-.79.02-.37-.11-.53-.36-.51-.44.03-.87.63-.76,1.06.07.27.25.34.49.24Z"/>
      <path class="cls-12" d="m49.3,8.14c.36-.17.59-.44.62-.79.02-.37-.11-.53-.36-.51-.44.03-.87.63-.76,1.06.07.27.25.34.49.24Z"/>
      <path class="cls-20" d="m38.96,12.53c-.35-.01-.5.13-.45.39.06.33.49.72.83.75.38.03.6-.24.44-.6-.16-.37-.51-.47-.82-.53Z"/>
      <path class="cls-5" d="m55.37,14.36c.36-.06.67-.18.84-.54.13-.27.05-.46-.24-.53-.32-.08-.81.12-.97.4-.08.14-.14.29-.05.45.09.17.25.22.44.21Z"/>
      <path class="cls-13" d="m42.15,9.67c-.13.35-.06.66.16.95.13.16.28.32.51.25.25-.08.27-.3.29-.56-.05-.31-.16-.62-.48-.81-.23-.14-.38-.07-.47.17Z"/>
      <path class="cls-19" d="m50.86,13.71c-.39-.15-1.07.28-1.11.69-.03.26.18.46.46.46.38,0,.86-.56.82-.94-.01-.12-.08-.18-.18-.22Z"/>
      <path class="cls-29" d="m55.36,11.97c-.1.14-.19.29-.1.47.09.18.26.24.38.23.45,0,.71-.21.92-.49.13-.18.13-.39-.12-.5-.32-.14-.86,0-1.07.29Z"/>
      <path class="cls-40" d="m45.67,7.14c.22-.17.3-.41.27-.74,0-.04,0-.13,0-.22-.02-.18-.09-.33-.27-.39-.17-.06-.28.06-.37.17-.25.29-.36.62-.23.99.1.29.36.37.61.18Z"/>
    </g>
    <path class="cls-36" d="m37.78,18.02c-.07,0-.13.03-.19.06-.11.06-.2.15-.28.24-.1.11-.19.23-.26.36-.07.12-.11.26-.12.4,0,.02,0,.03,0,.05-.03-.05-.06-.09-.11-.12,0-.02,0-.04,0-.06,0,0,0,0-.01-.01-.01,0-.02-.02-.01-.03,0-.1.02-.19.07-.27,0-.01.02-.03.03-.04.03-.03.05-.06.06-.1,0,0,0-.01,0-.02-.03.02-.06.04-.07.07-.06.12-.11.24-.1.38,0,0,0,0,0,0-.02.01-.04,0-.05-.02-.07-.07-.15-.12-.24-.15-.02,0-.03-.01-.05-.02-.04-.02-.08-.02-.12,0,.02,0,.03.02.05.03.02,0,.04.01.06.01.04,0,.07.01.11.03.08.03.15.08.21.14-.02.04,0,.06.03.08-.01.04-.01.04,0,.16-.03-.03-.06-.05-.09-.08-.07-.05-.14-.09-.22-.12-.15-.06-.31-.09-.47-.11-.09-.01-.18-.02-.27-.01-.06,0-.12.01-.18.03,0,0,0,0-.01,0-.02,0-.05.02-.07.03-.02.02-.05.03-.07.05-.03.02-.06.05-.08.09-.02.03-.02.07-.01.1,0,0,0,0,0,0,0,.02.01.03.02.05.03.03.05.07.08.1.05.05.1.1.16.14.05.04.08.09.11.15.03.06.06.11.1.16.09.1.25.14.39.05,0,0,0,0,0,0-.03.05-.06.1-.08.15-.03.06-.02.11,0,.16.03.07.09.13.15.18.1.09.22.15.35.19.03,0,.06.01.09.02.05,0,.1-.01.14-.04.09-.07.15-.16.18-.26.04-.11.07-.22.08-.34,0-.05,0-.09,0-.14,0,0,0,.02.01.02.04.08.07.15.11.23,0,.01.01.03.02.04,0,.01.02.02.03,0,.01,0,.01-.02,0-.03,0-.03-.01-.06-.02-.09-.03-.08-.05-.15-.08-.23,0,0,.02.02.02.03.06.06.12.11.19.16.08.05.15.1.24.13.09.04.18.05.28.03,0,0,.02,0,.02,0,.01,0,.03-.01.04-.02.08-.06.12-.14.15-.23.04-.1.06-.21.06-.32,0-.07,0-.14-.04-.21-.02-.05-.06-.08-.11-.1-.05-.01-.1-.03-.15-.04,0,0,0,0,0,0,.05,0,.09-.03.13-.06.08-.07.12-.16.11-.26,0-.05-.02-.1-.03-.14-.02-.06-.04-.13-.03-.2,0-.05,0-.09.01-.14,0-.06,0-.13,0-.19,0,0,0-.02,0-.02,0-.02-.01-.03-.02-.05-.03-.06-.08-.08-.15-.08-.02,0-.04,0-.06,0Z"/>
    <path class="cls-36" d="m34.91,12.55s0,0-.01,0c-.02,0-.05,0-.07-.01-.03,0-.06,0-.08,0-.04,0-.08.01-.12.03-.03.02-.05.05-.06.08,0,0,0,0,0,0,0,.02,0,.03,0,.05,0,.04,0,.09.01.13.02.07.03.14.06.2.02.06.02.12.02.19,0,.06-.01.13,0,.19.03.13.14.25.3.25,0,0,0,0,0,0-.05.02-.1.05-.15.08-.05.03-.07.09-.08.14-.01.08,0,.16.03.23.04.13.1.25.19.35.02.02.04.04.07.06.04.03.09.04.14.04.11,0,.21-.06.3-.13.09-.08.17-.16.25-.25.03-.04.05-.08.08-.11,0,0,0,.02,0,.03-.01.08-.02.17-.03.25,0,.01,0,.03,0,.04,0,.01,0,.02.02.03.02,0,.02-.01.02-.02,0-.03.02-.06.02-.09.02-.08.03-.16.05-.24,0,.01,0,.02,0,.03.02.08.04.16.08.23.04.08.08.17.13.24.06.08.13.14.22.18,0,0,.02,0,.02,0,.01,0,.03,0,.04,0,.1,0,.17-.06.25-.11.09-.07.17-.15.23-.24.04-.06.07-.12.08-.2,0-.05,0-.1-.04-.14-.03-.04-.07-.08-.1-.11,0,0,0,0,0,0,.05.02.09.02.14.02.11-.01.19-.07.24-.16.02-.04.04-.09.05-.14.02-.06.04-.13.08-.18.03-.04.05-.07.08-.11.04-.05.07-.11.1-.17,0,0,0-.01,0-.02,0-.02,0-.04,0-.05,0-.06-.03-.11-.08-.15-.02-.01-.03-.02-.05-.03-.06-.03-.12-.04-.19-.05-.13,0-.25.02-.37.06-.14.04-.28.1-.41.17-.12.07-.23.16-.32.27,0,.01-.02.02-.03.04,0-.06,0-.11-.03-.16.01-.01.02-.03.02-.05,0,0,0-.01,0-.02,0-.01,0-.02,0-.03.05-.08.12-.15.2-.19.01,0,.03-.01.05-.02.04-.01.07-.03.1-.06,0,0,0-.01.01-.02-.04,0-.07,0-.1.02-.11.07-.22.15-.29.27,0,0,0,0,0,0-.03,0-.03-.02-.04-.04-.02-.09-.07-.18-.13-.26-.01-.01-.02-.03-.03-.04-.03-.03-.06-.06-.1-.07,0,.02.02.04.03.05.01.02.03.03.05.05.03.02.05.05.08.08.05.07.08.15.1.23-.04.03-.04.05-.02.08-.03.03-.03.03-.08.14-.01-.04-.02-.08-.04-.11-.03-.08-.07-.15-.12-.22-.1-.13-.22-.24-.34-.34-.07-.06-.14-.11-.22-.15-.05-.03-.11-.05-.17-.07Z"/>
    <path class="cls-36" d="m52.06,19.25s.08-.06.12-.09c.05-.04.1-.09.17-.11.04-.02.09-.03.13-.05.06-.02.12-.05.17-.09,0,0,.01,0,.02-.01.01-.01.02-.03.04-.04.04-.05.04-.11.02-.17,0-.02-.02-.04-.03-.05-.03-.06-.08-.1-.13-.14-.1-.07-.22-.12-.34-.15-.14-.04-.29-.07-.43-.09-.14-.01-.28,0-.42.05-.01,0-.03.01-.05.02.03-.05.06-.09.07-.15.02,0,.04-.01.05-.03,0,0,0-.01,0-.02,0-.02,0-.02.02-.03.09-.04.18-.05.28-.05.02,0,.03,0,.05.01.04.01.08.02.12,0,0,0,.01,0,.02,0-.03-.02-.06-.04-.1-.04-.13,0-.27,0-.39.06,0,0,0,0,0,0-.02-.02-.02-.03,0-.06.03-.09.04-.19.04-.28,0-.02,0-.04,0-.05,0-.04-.01-.08-.05-.11,0,.02,0,.04,0,.06,0,.02,0,.04.01.06.02.03.02.07.02.11,0,.08-.01.17-.04.25-.05,0-.06.02-.07.06-.04,0-.04,0-.14.07.01-.04.02-.08.03-.12.02-.08.02-.17.02-.25,0-.16-.05-.32-.1-.47-.03-.09-.06-.17-.1-.25-.03-.05-.06-.11-.1-.15,0,0,0,0,0,0-.02-.02-.04-.03-.06-.05-.02-.02-.05-.03-.07-.05-.04-.02-.07-.03-.12-.04-.04,0-.07,0-.1.03,0,0,0,0,0,0-.01.01-.02.02-.04.04-.02.04-.04.07-.06.11-.03.07-.05.13-.07.2-.02.06-.05.12-.09.17-.04.05-.08.1-.1.16-.05.13-.02.29.11.38,0,0,0,0,0,0-.06-.01-.11-.02-.17-.02-.06,0-.11.03-.15.07-.05.06-.08.13-.1.21-.04.13-.05.26-.03.39,0,.03.01.06.02.09.01.05.05.08.09.11.1.06.21.07.32.06.12-.01.23-.03.34-.07.04-.01.09-.03.13-.05,0,0-.01.01-.02.02-.06.07-.11.13-.17.19,0,.01-.02.02-.03.04,0,.01,0,.02,0,.03.01,0,.02,0,.03,0,.02-.02.05-.04.07-.06.06-.05.11-.11.17-.17,0,.01,0,.02-.01.03-.03.08-.05.16-.06.24-.01.09-.03.18-.02.27,0,.1.03.19.08.27,0,0,0,.01.01.02,0,0,.02.02.03.03.08.05.18.05.27.04.11,0,.22-.03.32-.07.07-.03.13-.06.18-.12.03-.04.05-.09.04-.14,0-.05-.02-.1-.02-.15,0,0,0,0,0,0,.03.04.06.07.1.09.1.05.19.05.29,0Z"/>
    <path class="cls-36" d="m46.38,6.8c.11.03.23.05.34.06.05,0,.09,0,.14,0,0,0-.01,0-.02.01-.08.04-.15.08-.23.12-.01,0-.02.02-.04.02-.01,0-.02.02,0,.03,0,.01.02.01.03,0,.03,0,.06-.02.08-.03.07-.03.15-.06.22-.1,0,0-.02.02-.02.03-.06.06-.1.13-.14.2-.05.08-.09.16-.12.25-.03.09-.04.19-.02.28,0,0,0,.02,0,.02,0,.01.01.02.02.04.06.07.15.11.24.14.11.03.21.05.33.04.07,0,.14-.01.21-.05.05-.03.08-.07.09-.12.01-.05.02-.1.03-.15,0,0,0,0,0,0,.01.05.03.09.07.12.07.08.16.11.27.1.05,0,.09-.02.14-.04.06-.02.13-.04.19-.04.05,0,.09,0,.14,0,.06,0,.13,0,.19-.02,0,0,.02,0,.02,0,.02,0,.03-.02.05-.02.05-.04.08-.09.07-.15,0-.02,0-.04,0-.06-.01-.07-.04-.13-.07-.18-.07-.11-.16-.19-.26-.26-.12-.09-.24-.17-.38-.23-.13-.06-.26-.1-.41-.1-.02,0-.03,0-.05,0,.05-.03.09-.06.12-.11.02,0,.04,0,.06-.01,0,0,0,0,.01-.01,0-.01.01-.02.03-.02.1,0,.19.01.28.05.02,0,.03.02.04.03.03.02.06.04.1.05,0,0,.01,0,.02,0-.02-.03-.04-.06-.08-.07-.12-.05-.25-.09-.39-.08,0,0,0,0,0,0-.01-.02,0-.04.01-.05.06-.07.11-.16.13-.25,0-.02.01-.03.02-.05.01-.04.01-.08,0-.12,0,.02-.02.04-.03.05,0,.02-.01.04-.01.06,0,.04,0,.07-.02.11-.03.08-.07.15-.13.21-.05-.01-.07,0-.08.03-.04-.01-.04-.01-.16.02.02-.03.05-.06.07-.1.05-.07.08-.15.11-.23.05-.15.07-.31.08-.48,0-.09,0-.18,0-.27,0-.06-.02-.12-.04-.18,0,0,0,0,0-.01-.01-.02-.02-.05-.03-.07-.02-.02-.03-.05-.05-.07-.03-.03-.06-.06-.1-.08-.03-.01-.07-.02-.1,0,0,0,0,0,0,0-.02,0-.03.01-.05.02-.03.03-.07.05-.1.08-.05.05-.09.11-.13.16-.04.05-.09.09-.14.12-.05.03-.11.06-.15.11-.09.1-.12.26-.03.39,0,0,0,0,0,0-.05-.03-.1-.05-.15-.07-.06-.02-.11-.01-.16.02-.07.04-.12.09-.17.16-.08.11-.14.23-.17.36,0,.03,0,.06-.01.09,0,.05.02.1.05.13.07.09.17.14.28.17Z"/>
    <path class="cls-36" d="m48.43,11.43c-.27.08-.49.25-.68.45-.12.12-.24.26-.33.42-.02-.07.05-.1.02-.18-.1.08-.12.2-.19.3-.06-.07-.04-.16-.08-.22-.02-.03-.03-.06-.04-.09-.02-.03-.05-.06-.09-.04-.04.03-.02.06,0,.09.07.11.12.22.13.35-.13-.15-.21-.33-.32-.49-.1-.15-.19-.32-.34-.44-.04-.04-.09-.07-.15-.05-.07.02-.08.08-.09.15,0,.25.11.47.21.68.33.65.66,1.29,1,1.94.05.1.1.21.13.33,0,0,0,.01.02.02.02.02.05.04.08.04,0,0,.01,0,.02,0,.02,0,.03-.02.04-.03.01-.01.02-.03.03-.05-.05-.1-.1-.2-.15-.3-.02-.05-.04-.09.02-.12.05-.03.1-.02.14.03.05.06.09.13.13.19.03.04.06.09.12.05.06-.04.04-.09,0-.14-.04-.06-.08-.11-.12-.17.03,0,.05,0,.05.02.07.12.16.18.31.12.06-.02.13-.04.18.02.07.08.14.16.19.25.02.02.05.04.07.06.02,0,.04.02.05.03.03.02.06.04.1.05,0,0,0,0,0,0,.03,0,.06,0,.08-.02.02-.06-.01-.12-.05-.18-.08-.11-.19-.2-.29-.29-.12-.11-.17-.23-.12-.39.05-.16-.06-.24-.19-.32.23-.08.26-.27.25-.45-.04-.4.06-.78.17-1.15.03-.1.06-.21.01-.32-.06-.14-.17-.2-.32-.15Z"/>
    <path class="cls-36" d="m38.56,10.43s0,0,0,0c.03-.01.06-.03.09-.04.02,0,.03-.02.05-.03.02-.02.04-.04.06-.05.05-.08.1-.15.17-.22.05-.05.11-.04.16-.02.13.06.21,0,.27-.1,0-.01.02-.02.05-.02-.04.05-.07.1-.11.15-.03.04-.04.08,0,.12.05.04.08,0,.11-.04.04-.06.08-.11.12-.17.03-.04.07-.05.12-.02.05.03.04.07.02.11-.04.09-.09.17-.13.26,0,.02.01.03.02.04.01.01.02.02.04.03,0,0,0,0,.01,0,.03,0,.05-.01.07-.03,0,0,0-.01.01-.02.03-.1.07-.19.12-.29.29-.57.59-1.14.88-1.71.1-.19.19-.38.19-.6,0-.06-.02-.11-.08-.13-.05-.02-.09.01-.13.04-.13.11-.2.25-.3.39-.1.14-.17.3-.29.43.01-.11.05-.22.12-.31.02-.03.04-.05,0-.08-.03-.02-.06,0-.07.03-.02.03-.02.06-.04.08-.04.06-.02.14-.07.2-.06-.09-.08-.2-.17-.27-.03.07.04.09.02.15-.09-.14-.18-.26-.29-.37-.17-.17-.36-.32-.6-.39-.13-.04-.23,0-.28.13-.04.1-.01.19.01.28.1.33.19.66.15,1.01-.02.16.01.32.22.4-.11.07-.21.14-.16.28.04.14,0,.25-.11.35-.09.08-.19.16-.26.26-.03.05-.06.11-.04.16.02.02.05.02.07.02Z"/>
    <path class="cls-36" d="m51.88,9.51c-.07-.01-.14-.02-.19.04-.05.06-.04.14,0,.2.15.26.4.42.64.58.73.47,1.48.93,2.22,1.4.12.08.23.16.33.26,0,0,.02,0,.03,0,.04.01.07,0,.1,0,0,0,.01,0,.02-.01.01-.02.02-.04.02-.06,0-.02,0-.05,0-.07-.11-.07-.22-.14-.34-.22-.05-.03-.1-.07-.06-.14.04-.06.09-.08.16-.05.09.04.17.07.25.11.06.03.12.06.16-.02.03-.08-.02-.12-.08-.15-.08-.04-.15-.07-.23-.1.03-.02.05-.02.07-.01.15.08.28.09.39-.07.04-.06.11-.12.2-.09.12.04.24.08.35.14.04,0,.07.01.11.02.02,0,.05,0,.07,0,.04,0,.09,0,.13,0,0,0,0,0,0,0,.03-.01.07-.04.07-.07-.01-.07-.09-.12-.16-.15-.15-.07-.32-.09-.48-.12-.19-.04-.31-.14-.36-.33-.05-.19-.21-.2-.39-.22.19-.23.11-.44-.02-.62-.29-.39-.42-.84-.53-1.3-.03-.13-.06-.25-.18-.34-.15-.11-.3-.1-.42.04-.23.25-.35.56-.44.88-.05.2-.09.41-.09.64-.07-.06,0-.13-.09-.19-.06.14,0,.28-.02.43-.1-.03-.14-.14-.22-.18-.04-.02-.07-.05-.1-.07-.04-.02-.08-.03-.11.02-.03.05.01.07.05.09.14.07.26.16.35.29-.23-.07-.42-.21-.63-.31-.2-.09-.39-.21-.62-.25Z"/>
    <path class="cls-1" d="m57.01,7.32c3.61,4.1,5.8,9.48,5.8,15.38,0,6.85-2.96,13.01-7.66,17.27-4.13,3.74-9.61,6.02-15.63,6.02-12.72,0-23.07-10.2-23.29-22.87,0-.14,0-.28,0-.42,0-6.32,2.52-12.05,6.6-16.24-4.31,4.28-6.98,10.22-6.98,16.77,0,1.94.23,3.82.67,5.63,0,0,0,.01,0,.02,2.53,10.34,11.86,18.01,22.97,18.01.59,0,1.18-.02,1.76-.06,12.24-.9,21.89-11.12,21.89-23.59,0-6.12-2.33-11.7-6.14-15.9Z"/>
    <path class="cls-25" d="m52.57,36.19c-.61-.32-1.21-.64-1.76-1.01-.8-.54-1.48-1.14-1.87-1.99-.38-.84-.39-1.77-.36-2.71.06-1.36.32-2.71.44-4.11.11-1.49.06-3.07-.57-4.49-.36-.85-.91-1.56-1.5-2.23-.02-1.34.85-3.12,1.71-3.94.42-.4.92-.72,1.47-.94-1.18.29-2.22,1.07-2.88,2.09-.4.62-.79,1.28-1.01,1.99-.57-.64-1.12-1.3-1.52-2.06-.9-1.77-.26-3.97,1.43-5.16-1.86.67-3,2.79-2.68,4.74.09.53.27,1.04.51,1.52-2.12-1.14-4.5-1.73-6.85-1.69,2.98.24,5.82,1.5,7.96,3.43.25.34.51.67.75,1-.12-.02-.24-.04-.37-.06-1.94-.29-3.94-.34-5.88-.16,1.29.14,2.56.37,3.79.7,1.22.29,2.2.79,3.43,1.07.83,1.89.53,3.96.28,6.1-.3,2.67-.36,5.63,2.18,7.29.9.63,1.95,1.04,2.96,1.39,1.33.44,2.82.81,4.21.41-1.39.01-2.67-.55-3.88-1.18Z"/>
  </g>
  <g>
    <g>
      <path class="cls-36" d="m20.98,61.13c0-.85.03-1.95.03-3.38,0-1.27-.01-2.34-.02-3.55-1.01,1.82-2.01,3.54-3.29,5.53-.1.15-.16.19-.25.19s-.15-.04-.21-.13c-1.36-2.09-2.37-3.74-3.41-5.6-.01,1.15-.04,2.05-.04,3.23,0,1.28.02,2.18.02,3.41,0,.26-.04.34-.15.34s-.16-.1-.16-.3c0-1.34.04-2.34.04-3.65,0-1.11-.02-1.97-.02-3.16,0-.21.11-.29.22-.29s.18.06.27.22c1.1,2.05,2.07,3.61,3.44,5.66,1.26-1.95,2.25-3.7,3.32-5.61.12-.21.19-.25.3-.25.15,0,.22.13.22.37,0,1.33-.06,2.43-.06,3.7,0,.88.02,2.15.02,3.31,0,.17-.06.25-.15.25-.1,0-.15-.09-.15-.26Z"/>
      <path class="cls-36" d="m27.05,59.63c-.28,1-1.14,1.66-2.25,1.66s-1.92-.57-1.92-1.56c0-.85.7-1.61,2.33-1.61.49,0,1.36.15,1.83.31.01-.09.01-.18.01-.27,0-1.27-.49-1.98-1.73-1.98-.64,0-1.14.17-1.55.48-.19.15-.28.19-.36.19-.09,0-.12-.06-.12-.11,0-.29.93-.78,2.02-.78,1.45,0,1.98.93,1.98,2,0,2.78.1,3.04.45,3.04.16,0,.24-.09.35-.09.07,0,.11.05.11.1,0,.11-.19.2-.43.2-.49,0-.71-.28-.72-1.6Zm-.02-.93c-.49-.19-1.15-.36-1.86-.36-1.44,0-2.04.69-2.04,1.39,0,.85.69,1.35,1.66,1.35,1.11,0,2.07-.65,2.23-2.38Z"/>
      <path class="cls-36" d="m29.33,60.96c0-.62.07-1.11.07-2.13,0-1.73-.17-2.23-.17-2.5,0-.13.06-.21.15-.21.17,0,.22.33.22,2.23.27-1.33,1.17-2.33,2.09-2.33.62,0,1.08.31,1.08.52,0,.07-.04.11-.12.11s-.16-.05-.25-.11c-.28-.2-.49-.28-.74-.28-1.17,0-2.05,1.71-2.05,3.45,0,.57.03,1.12.03,1.27,0,.25-.04.36-.15.36-.12,0-.17-.12-.17-.38Z"/>
      <path class="cls-36" d="m33.8,63.98c0-.08.06-.12.18-.18.81-.34,1.25-.78,2.13-2.37-1.03-1.81-1.77-3.38-2.53-5-.03-.07-.07-.16-.07-.22,0-.11.07-.16.15-.16.11,0,.17.12.24.28.82,2.07,1.37,3.11,2.35,4.86.65-1.34,1.26-2.93,1.93-4.89.08-.21.13-.27.22-.27.07,0,.12.04.12.15,0,.04-.02.13-.07.26-1.11,2.97-1.93,4.91-2.82,6.3-.56.88-1.27,1.37-1.64,1.37-.12,0-.19-.04-.19-.11Z"/>
      <path class="cls-36" d="m43.37,59.63c-.28,1-1.14,1.66-2.25,1.66s-1.92-.57-1.92-1.56c0-.85.7-1.61,2.33-1.61.49,0,1.36.15,1.83.31.01-.09.01-.18.01-.27,0-1.27-.49-1.98-1.73-1.98-.64,0-1.14.17-1.55.48-.19.15-.28.19-.36.19-.09,0-.12-.06-.12-.11,0-.29.93-.78,2.02-.78,1.45,0,1.98.93,1.98,2,0,2.78.1,3.04.45,3.04.16,0,.24-.09.35-.09.07,0,.11.05.11.1,0,.11-.19.2-.43.2-.49,0-.71-.28-.72-1.6Zm-.02-.93c-.49-.19-1.15-.36-1.86-.36-1.44,0-2.04.69-2.04,1.39,0,.85.69,1.35,1.66,1.35,1.11,0,2.07-.65,2.23-2.38Z"/>
      <path class="cls-36" d="m49.98,60.8c-.04-.36-.07-1.11-.07-2.81,0-1.16-.56-1.84-1.62-1.84-1.44,0-2.33,1.61-2.33,3.06,0,1.07.02,1.56.02,1.78s-.06.3-.16.3-.16-.08-.16-.36c0-.56.06-1.26.06-1.98,0-2.08-.18-2.36-.18-2.72,0-.11.03-.2.12-.2.15,0,.26.25.27,2,.28-1.07,1.16-2.09,2.33-2.09,1.27,0,1.88.8,1.88,2.05,0,1.43.02,2.16.08,2.55.06.4.12.48.12.64,0,.11-.06.16-.12.16-.11,0-.19-.12-.25-.53Z"/>
      <path class="cls-36" d="m54.3,61.27c-1.36,0-2.57-.88-2.57-2.53,0-1.54,1.18-2.8,2.66-2.8,1.27,0,2.02.73,2.02,1.52,0,1.05-.98,1.52-2.19,1.52-.66,0-1.66-.19-2.23-.46-.01.06-.01.11-.01.17,0,1.48.98,2.37,2.4,2.37.72,0,1.45-.36,1.98-.98.13-.17.18-.19.25-.19s.11.04.11.12c0,.26-1.01,1.26-2.42,1.26Zm1.88-3.79c0-.71-.7-1.33-1.82-1.33s-2.14,1-2.34,2.14c.66.31,1.52.47,2.25.47,1.1,0,1.91-.44,1.91-1.28Z"/>
    </g>
    <g>
      <path class="cls-36" d="m33.16,72.68c0-.85.03-1.95.03-3.38,0-1.27-.01-2.34-.02-3.55-1.01,1.82-2.01,3.54-3.29,5.53-.1.15-.16.19-.25.19s-.15-.04-.21-.13c-1.36-2.09-2.37-3.74-3.41-5.6-.01,1.15-.04,2.05-.04,3.23,0,1.28.02,2.18.02,3.41,0,.26-.04.34-.15.34s-.16-.1-.16-.3c0-1.34.04-2.34.04-3.65,0-1.11-.02-1.97-.02-3.16,0-.21.11-.29.22-.29s.18.06.27.22c1.1,2.05,2.07,3.61,3.44,5.66,1.26-1.95,2.25-3.7,3.32-5.61.12-.21.19-.25.3-.25.15,0,.22.13.22.37,0,1.33-.06,2.43-.06,3.7,0,.88.02,2.15.02,3.31,0,.17-.06.25-.15.25-.1,0-.15-.09-.15-.26Z"/>
      <path class="cls-36" d="m39.58,70.85c-.28,1.18-1.18,2.04-2.26,2.04-1.3,0-2.04-.75-2.04-2.81,0-.89.07-1.66.17-2.2.04-.22.1-.29.18-.29s.12.07.12.2c0,.34-.21.88-.21,2.36,0,1.88.67,2.53,1.73,2.53,1.21,0,2.27-1.17,2.27-2.83,0-.84-.08-1.6-.08-2.06,0-.27.04-.36.17-.36.08,0,.13.09.13.43,0,.74-.03,1.42-.03,2.29,0,1.35.33,2.06.33,2.42,0,.13-.03.19-.1.19-.08,0-.12-.07-.18-.25-.1-.37-.19-.97-.2-1.65Z"/>
      <path class="cls-36" d="m46.17,72.36c-.04-.36-.07-1.11-.07-2.81,0-1.16-.56-1.84-1.62-1.84-1.44,0-2.33,1.61-2.33,3.06,0,1.07.02,1.56.02,1.78s-.06.3-.16.3-.16-.08-.16-.36c0-.56.06-1.26.06-1.98,0-2.08-.18-2.36-.18-2.72,0-.11.03-.2.12-.2.15,0,.26.25.27,2,.28-1.07,1.16-2.09,2.33-2.09,1.27,0,1.88.8,1.88,2.05,0,1.43.02,2.16.08,2.55.06.4.12.48.12.64,0,.11-.06.16-.12.16-.11,0-.19-.12-.25-.53Z"/>
      <path class="cls-36" d="m52.77,70.9c-.49,1.46-1.59,1.99-2.48,1.99-1.3,0-2.37-1.1-2.37-2.62s.85-2.8,2.63-2.8c.61,0,1.6.35,2.24.96-.01-2.11-.02-3.24-.02-3.54,0-.33.06-.43.16-.43s.16.07.16.35c0,.76-.06,2.04-.06,4.92,0,2.01.11,2.48.11,2.79,0,.16-.06.24-.13.24-.16,0-.2-.28-.22-1.86Zm.01-1.42v-.73c-.67-.65-1.55-1.07-2.31-1.07-1.32,0-2.31,1-2.31,2.56,0,1.32.84,2.43,2.1,2.43s2.51-1.23,2.51-3.19Z"/>
      <path class="cls-36" d="m55.38,66.03c0,.55-.15.67-.27.67-.2,0-.29-.18-.29-.61s.11-.6.29-.6c.17,0,.27.18.27.53Zm-.15,4.5c0,1.3.07,1.72.07,2.02,0,.33-.06.39-.16.39s-.17-.08-.17-.37c0-.24.02-1.42.02-2.19,0-1.29-.07-2.2-.07-2.46,0-.22.07-.29.16-.29.11,0,.16.08.16.29,0,.33-.01,1.11-.01,2.61Z"/>
      <path class="cls-36" d="m57.44,72.91c-.11,0-.17-.11-.17-.39,0-.74.06-1.1.06-1.98,0-1.62-.22-2.43-.22-2.77,0-.11.06-.17.12-.17.16,0,.29.34.3,1.97.29-1.24,1.19-2.17,2.22-2.17.93,0,1.57.66,1.71,1.98.27-1.07,1.05-1.98,2.08-1.98s1.75.71,1.75,1.99c0,1.78.02,2.25.11,2.69.07.33.1.4.1.53,0,.11-.04.17-.12.17-.12,0-.21-.12-.27-.62-.04-.38-.06-1.14-.06-2.64,0-1.26-.53-1.9-1.53-1.9-1.09,0-2,1.27-2,2.95,0,.72.04,1.36.04,1.87,0,.35-.06.42-.15.42-.11,0-.17-.09-.17-.4,0-.65.03-1.33.03-1.96,0-2.11-.56-2.87-1.55-2.87-1.14,0-2.17,1.46-2.17,3.17,0,.87.03,1.16.03,1.73,0,.33-.06.39-.16.39Z"/>
    </g>
  </g>
</svg>