<?xml version="1.0" encoding="UTF-8"?>
<svg id="Layer_1" data-name="Layer 1" xmlns="http://www.w3.org/2000/svg" xmlns:xlink="http://www.w3.org/1999/xlink" viewBox="0 0 3647.04 1157.93">
  <defs>
    <style>
      .cls-1 {
        fill: url(#linear-gradient-38);
      }

      .cls-1, .cls-2, .cls-3, .cls-4, .cls-5, .cls-6, .cls-7, .cls-8, .cls-9, .cls-10, .cls-11, .cls-12, .cls-13, .cls-14, .cls-15, .cls-16, .cls-17, .cls-18, .cls-19, .cls-20, .cls-21, .cls-22, .cls-23, .cls-24, .cls-25, .cls-26, .cls-27, .cls-28, .cls-29, .cls-30, .cls-31, .cls-32, .cls-33, .cls-34, .cls-35, .cls-36, .cls-37, .cls-38, .cls-39, .cls-40 {
        stroke-width: 0px;
      }

      .cls-2 {
        fill: url(#linear-gradient-12);
      }

      .cls-3 {
        fill: url(#linear-gradient-17);
      }

      .cls-4 {
        fill: url(#linear-gradient-19);
      }

      .cls-5 {
        fill: url(#linear-gradient-33);
      }

      .cls-6 {
        fill: url(#linear-gradient);
      }

      .cls-7 {
        fill: url(#linear-gradient-21);
      }

      .cls-8 {
        fill: url(#linear-gradient-6);
      }

      .cls-9 {
        fill: url(#linear-gradient-15);
      }

      .cls-10 {
        fill: url(#linear-gradient-11);
      }

      .cls-11 {
        fill: url(#linear-gradient-5);
      }

      .cls-12 {
        fill: url(#linear-gradient-31);
      }

      .cls-13 {
        fill: url(#linear-gradient-34);
      }

      .cls-41 {
        stroke: #8447a0;
        stroke-miterlimit: 10;
        stroke-width: 10px;
      }

      .cls-41, .cls-36 {
        fill: #8447a0;
      }

      .cls-14 {
        fill: url(#linear-gradient-13);
      }

      .cls-15 {
        fill: url(#linear-gradient-23);
      }

      .cls-16 {
        fill: url(#linear-gradient-25);
      }

      .cls-17 {
        fill: url(#linear-gradient-16);
      }

      .cls-18 {
        fill: url(#linear-gradient-22);
      }

      .cls-19 {
        fill: url(#linear-gradient-35);
      }

      .cls-20 {
        fill: url(#linear-gradient-32);
      }

      .cls-21 {
        fill: url(#linear-gradient-20);
      }

      .cls-22 {
        fill: url(#linear-gradient-14);
      }

      .cls-23 {
        fill: url(#linear-gradient-2);
      }

      .cls-24 {
        fill: url(#linear-gradient-7);
      }

      .cls-25 {
        fill: url(#linear-gradient-39);
      }

      .cls-26 {
        fill: url(#linear-gradient-3);
      }

      .cls-27 {
        fill: url(#linear-gradient-9);
      }

      .cls-28 {
        fill: url(#linear-gradient-27);
      }

      .cls-29 {
        fill: url(#linear-gradient-36);
      }

      .cls-30 {
        fill: url(#linear-gradient-8);
      }

      .cls-31 {
        fill: url(#linear-gradient-24);
      }

      .cls-32 {
        fill: url(#linear-gradient-26);
      }

      .cls-33 {
        fill: url(#linear-gradient-18);
      }

      .cls-34 {
        fill: url(#linear-gradient-30);
      }

      .cls-35 {
        fill: url(#linear-gradient-29);
      }

      .cls-37 {
        fill: url(#linear-gradient-28);
      }

      .cls-38 {
        fill: url(#linear-gradient-10);
      }

      .cls-39 {
        fill: url(#linear-gradient-4);
      }

      .cls-40 {
        fill: url(#linear-gradient-37);
      }
    </style>
    <linearGradient id="linear-gradient" x1="-718.49" y1="592.29" x2="1150.98" y2="592.29" gradientUnits="userSpaceOnUse">
      <stop offset="0" stop-color="#49789d"/>
      <stop offset=".05" stop-color="#487b9c"/>
      <stop offset=".33" stop-color="#478d99"/>
      <stop offset=".64" stop-color="#469798"/>
      <stop offset="1" stop-color="#469b98"/>
    </linearGradient>
    <linearGradient id="linear-gradient-2" x1="548.58" y1="47.27" x2="607.8" y2="47.27" gradientUnits="userSpaceOnUse">
      <stop offset="0" stop-color="#497a9d"/>
      <stop offset=".14" stop-color="#49789d"/>
      <stop offset="1" stop-color="#469b98"/>
    </linearGradient>
    <linearGradient id="linear-gradient-3" x1="981.59" y1="306.47" x2="1055.32" y2="306.47" xlink:href="#linear-gradient-2"/>
    <linearGradient id="linear-gradient-4" x1="661.19" y1="276.62" x2="734.31" y2="276.62" xlink:href="#linear-gradient-2"/>
    <linearGradient id="linear-gradient-5" x1="1017.55" y1="390.26" x2="1056.1" y2="390.26" xlink:href="#linear-gradient-2"/>
    <linearGradient id="linear-gradient-6" x1="833.45" y1="293.58" x2="859.64" y2="293.58" xlink:href="#linear-gradient-2"/>
    <linearGradient id="linear-gradient-7" x1="499.51" y1="304.06" x2="580.86" y2="304.06" xlink:href="#linear-gradient-2"/>
    <linearGradient id="linear-gradient-8" x1="920.05" y1="140.35" x2="968.35" y2="140.35" xlink:href="#linear-gradient-2"/>
    <linearGradient id="linear-gradient-9" x1="804.89" y1="241.27" x2="843.38" y2="241.27" xlink:href="#linear-gradient-2"/>
    <linearGradient id="linear-gradient-10" x1="706.01" y1="210.53" x2="746.9" y2="210.53" xlink:href="#linear-gradient-2"/>
    <linearGradient id="linear-gradient-11" x1="945.59" y1="201.9" x2="995.93" y2="201.9" xlink:href="#linear-gradient-2"/>
    <linearGradient id="linear-gradient-12" x1="1019.29" y1="215.02" x2="1071.47" y2="215.02" xlink:href="#linear-gradient-2"/>
    <linearGradient id="linear-gradient-13" x1="651.52" y1="469.4" x2="710.99" y2="469.4" xlink:href="#linear-gradient-2"/>
    <linearGradient id="linear-gradient-14" x1="769.38" y1="105.48" x2="806.2" y2="105.48" xlink:href="#linear-gradient-2"/>
    <linearGradient id="linear-gradient-15" x1="694.23" y1="69.03" x2="737.13" y2="69.03" xlink:href="#linear-gradient-2"/>
    <linearGradient id="linear-gradient-16" x1="578.09" y1="139.07" x2="623.26" y2="139.07" xlink:href="#linear-gradient-2"/>
    <linearGradient id="linear-gradient-17" x1="505.45" y1="436.76" x2="566.78" y2="436.76" xlink:href="#linear-gradient-2"/>
    <linearGradient id="linear-gradient-18" x1="863.1" y1="120.54" x2="904.79" y2="120.54" xlink:href="#linear-gradient-2"/>
    <linearGradient id="linear-gradient-19" x1="642.33" y1="179.37" x2="692.61" y2="179.37" xlink:href="#linear-gradient-2"/>
    <linearGradient id="linear-gradient-20" x1="1073.1" y1="316.41" x2="1127.88" y2="316.41" xlink:href="#linear-gradient-2"/>
    <linearGradient id="linear-gradient-21" x1="879.07" y1="363.61" x2="933.85" y2="363.61" xlink:href="#linear-gradient-2"/>
    <linearGradient id="linear-gradient-22" x1="475.52" y1="354.98" x2="537.14" y2="354.98" xlink:href="#linear-gradient-2"/>
    <linearGradient id="linear-gradient-23" x1="934.65" y1="435.34" x2="996.21" y2="435.34" xlink:href="#linear-gradient-2"/>
    <linearGradient id="linear-gradient-24" x1="609.86" y1="351.25" x2="670.31" y2="351.25" xlink:href="#linear-gradient-2"/>
    <linearGradient id="linear-gradient-25" x1="594.13" y1="283.08" x2="654.57" y2="283.08" xlink:href="#linear-gradient-2"/>
    <linearGradient id="linear-gradient-26" x1="752.56" y1="46.64" x2="779.16" y2="46.64" xlink:href="#linear-gradient-2"/>
    <linearGradient id="linear-gradient-27" x1="596.08" y1="447.58" x2="636.13" y2="447.58" xlink:href="#linear-gradient-2"/>
    <linearGradient id="linear-gradient-28" x1="539.85" y1="183.47" x2="574.42" y2="183.47" xlink:href="#linear-gradient-2"/>
    <linearGradient id="linear-gradient-29" x1="691.63" y1="401.64" x2="730.43" y2="401.64" xlink:href="#linear-gradient-2"/>
    <linearGradient id="linear-gradient-30" x1="979.98" y1="94.33" x2="1011.37" y2="94.33" xlink:href="#linear-gradient-2"/>
    <linearGradient id="linear-gradient-31" x1="912.46" y1="68.07" x2="943.86" y2="68.07" xlink:href="#linear-gradient-2"/>
    <linearGradient id="linear-gradient-32" x1="627.36" y1="222.78" x2="664.24" y2="222.78" xlink:href="#linear-gradient-2"/>
    <linearGradient id="linear-gradient-33" x1="1081.27" y1="242.56" x2="1119.39" y2="242.56" xlink:href="#linear-gradient-2"/>
    <linearGradient id="linear-gradient-34" x1="726.43" y1="141.21" x2="754.6" y2="141.21" xlink:href="#linear-gradient-2"/>
    <linearGradient id="linear-gradient-35" x1="938.67" y1="255.18" x2="974.48" y2="255.18" xlink:href="#linear-gradient-2"/>
    <linearGradient id="linear-gradient-36" x1="1090.49" y1="196.16" x2="1129.76" y2="196.16" xlink:href="#linear-gradient-2"/>
    <linearGradient id="linear-gradient-37" x1="807.45" y1="40.28" x2="833.38" y2="40.28" xlink:href="#linear-gradient-2"/>
    <linearGradient id="linear-gradient-38" x1="0" y1="598.2" x2="1310" y2="598.2" xlink:href="#linear-gradient"/>
    <linearGradient id="linear-gradient-39" x1="589.59" y1="541.13" x2="1124.57" y2="541.13" xlink:href="#linear-gradient"/>
  </defs>
  <g>
    <path class="cls-6" d="m571.78,851.25c-11.17-14.37-25.59-26.27-38.81-39.02-6.32-6.09-13.29-11.58-20.96-15.87-3.74-2.09-7.63-3.9-11.66-5.36-4.2-1.52-8.57-3.15-12.94-4.16-2.92-.68-5.91-.98-8.89-1.25-22.64-2.05-45.42-2.02-68.12-3.38-8.06-.48-16.44-6.69-22.54-11.74-5.85-4.84-10.81-10.75-14.21-17.57-6.13-12.29-6.64-26.39-4.36-39.72,3.41-19.82,2.52-37.6-12.64-53.28-7.5-7.81-8.71-18.93-5.72-29.73,2.99-10.54,2.31-20.66-2.1-30.68-7.18-16.41-3.14-31.36,8.5-43.53,13.53-14.16,12.48-25.96.79-41.22-30.84-40.17-27.58-59.1,15.26-86.53,15.05-9.65,26.96-21.97,40.12-33.35,17.83-15.42,26.12-34.14,24.38-57.84,0-.47-.05-.94-.1-1.42-1.47-22.24,1.05-44.58,2.36-66.81,1.31-21.97,3.46-44.26,11.12-65.08,4.72-12.74,11.38-24.65,17.99-36.45,8.44-15.05,16.94-30.21,27.74-43.63,4.2-5.19,8.76-10.23,13.48-15.05,2.88-3.04,5.87-5.98,8.81-8.81,1.63-1.57,3.31-3.15,4.72-4.88,1.52-1.94,2.78-4.09,3.93-6.29.73-1.42,2.15-4.09.26-4.93-1.78-.73-4.04.21-5.56,1.05-17.88,9.75-33.88,23.07-46.62,38.91-10.8,13.43-19.3,28.58-27.74,43.63-6.61,11.8-13.27,23.7-17.99,36.45-7.66,20.82-9.81,43.11-11.12,65.08-1.31,22.24-3.83,44.58-2.36,66.81.05.47.1.94.1,1.42,1.73,23.7-6.56,42.43-24.38,57.84-13.16,11.38-25.07,23.7-40.12,33.35-42.84,27.43-46.1,46.36-15.26,86.53,11.69,15.26,12.74,27.06-.79,41.22-11.64,12.17-15.68,27.11-8.5,43.53,4.41,10.02,5.09,20.14,2.1,30.68-2.99,10.8-1.78,21.92,5.72,29.73,15.16,15.68,16.05,33.46,12.64,53.28-5.4,31.52,6.35,54.23,35.82,67.96,3.61,1.68,7.38,3.04,11.23,4.07,8.17,2.18,16.7,4.41,25.05,5.46,8.96,1.12,17.93,2.11,26.91,2.95,10.6.99,21.23,1.79,31.86,2.39,5.96.34,12.3.66,17.62,3.68,5.64,3.2,10.52,8.12,15.18,12.56,13.22,12.74,27.64,24.65,38.81,39.02,46.15,59.36,78.92,124.02,67.49,202.43-3.78,25.96-10.8,39.65-25.07,45.26,4.35.58,8.6,1.42,12.95,2.25,2.78-.84,5.61-1.57,8.44-2.2-.16,0-.26-.05-.42-.05,14.27-5.61,21.29-19.3,25.07-45.26,11.43-78.4-21.35-143.06-67.49-202.43Z"/>
    <g>
      <path class="cls-23" d="m607.78,34.1c.9,15.95-22.31,38.19-38.86,38.76-12.42.43-21.67-4.82-20.19-17.94,2.24-19.91,15.66-30.63,35.03-32.83,10.48-1.19,21.52-.61,24.02,12.01Z"/>
      <path class="cls-26" d="m984.08,326.49c1.18,2.11,2.68,4.07,3.88,6.15,8.31,5.11,16.67,4.06,24.96,2.14,21.26-4.92,33.29-19.96,40.86-39.12,4.47-11.31-.97-19.31-13.43-19.06-22.02.45-47.48,6.25-58.08,34.1-.22.57-.44,1.1-.67,1.57,0,.05,0,.09-.01.14.5,2.33.37,4.76.51,7.16.19.93.39,1.87.6,2.8.31,1.43.85,2.77,1.39,4.11Z"/>
      <path class="cls-39" d="m729.5,300.01c1.55-1.85,2.85-3.95,4.36-5.82,1.81-9.59-2.14-17.03-6.89-24.08-12.17-18.12-30.5-24-51.1-24.25-12.16-.15-17.7,7.78-13.03,19.33,8.26,20.42,22.75,42.14,52.55,42.13.61,0,1.18.02,1.71.07.04-.01.09-.03.13-.04,2-1.3,4.32-2.04,6.51-3.02.8-.51,1.6-1.03,2.4-1.55,1.22-.8,2.29-1.78,3.35-2.76Z"/>
      <path class="cls-11" d="m1027.33,404.68c7.05,1.59,12.83-1.14,18.15-5.43,5.89-4.75,13.3-9.9,9.64-18.23-3.52-8.01-12.3-5.3-19.34-4.85-.45.03-.89.16-1.33.3-.22.65-.78,1.15-1.7,1.09-.59-.04-1.14.15-1.87.53-.92.48-1.78,1.07-2.61,1.7-1.61,1.23-3.1,2.63-4.52,4.07-1.72,1.74-3.14,3.6-4.18,5.83-1.03,2.2-1.61,4.6-2.04,6.99.73,4.59,4.65,6.84,9.78,8Z"/>
      <path class="cls-8" d="m855.57,307.77c1.78-2.83,2.43-6.36,3.6-9.58,1.09-3.02-.1-7.09.16-10.25-.13-.17-.23-.36-.28-.57-.67-2.94-1.57-5.35-3.15-7.85-.76-1.2-1.49-2.12-2.65-3.15-.86-.77-2.25-1.6-3.31-1.97-.09-.03-.15-.1-.23-.14-.18,0-.36,0-.5-.07-.51-.22-1.05-.39-1.6-.5-12.39,5.68-17.8,20.27-11.56,32.94,4.2,8.53,14.4,9.26,19.51,1.13Z"/>
      <path class="cls-24" d="m565.23,285.06c-1.35-.78-2.52-1.59-3.58-2.41-2.91-.62-5.82-1.22-8.79-1.58-6.03-.74-12.08-1.42-18.15-1.42-6.25,0-12.65.62-18.84,1.47-2.65.37-5.02,1.04-7.51,1.99-1.08.41-2.15.79-3.25,1.06-.38.35-.8.7-1.25,1.05-5.65,4.31-5.25,9.72-1.84,14.93,11.16,17.08,27.59,25.54,48.68,28.31,4.59-1,10.44-1.98,16.12-3.57,7.71-2.16,12.94-6.19,13.9-15.35,1.34-12.72-7.06-19.6-15.49-24.48Z"/>
      <path class="cls-30" d="m920.91,147.24c-1.62,6.15-1.25,11.83,3.79,16.28,4.95,4.37,10.56,4.47,16.61,2.3,15.95-5.73,26.33-20.51,27.01-38.83.45-11.97-3.75-15.42-15.19-12.5-17.35,4.42-27.73,15.66-32.21,32.75Z"/>
      <path class="cls-27" d="m813.76,215.9c-5.5,7.82-8.5,16.63-8.88,26.78.72,8.69,2.65,17.49,9.19,24.48,6.48,6.93,17,6.76,22.08-.14,13.23-17.95,6.52-41.14-5.8-52.93-5.92-5.66-11.78-5-16.59,1.82Z"/>
      <path class="cls-38" d="m723.53,182.28c-6.01-2.85-10.75-2.45-14.02,4.09-6.83,13.68-3.33,35.95,7.64,46.31,5.3,5,11.16,9.98,19.11,6.77,8.48-3.42,9.84-11.39,10.64-19.73-1.51-16.16-7.41-29.86-23.38-37.44Z"/>
      <path class="cls-10" d="m995.6,189.56c1.41-9.28-1.56-12.77-10.93-12.86-18.71-.17-35.95,14.46-38.79,32.92-1.93,12.52,6.07,19.81,18.44,16.81,16.91-4.11,28.36-17.6,31.29-36.87Z"/>
      <path class="cls-2" d="m1071.45,199.98c-.23-6.44-3.2-9.9-11.66-9.61-4.98,1.23-12.06,1.95-18.22,4.72-11.65,5.23-19.83,14.02-22.09,27.2-1.4,8.19,5.36,17.17,12.96,17.38,19.1.53,39.71-20.47,39.01-39.69Z"/>
      <path class="cls-14" d="m709.36,468.5c3.62-7.23,1.07-14.49-6.32-17.78-4.07-1.81-8.41-2.15-12.81-2.06-14.21-.05-32.58,12.13-37.54,25.13-2.08,5.45-1.85,10.61,4.36,13.4,17.99,8.09,43.5-1.08,52.31-18.69Z"/>
      <path class="cls-22" d="m769.59,106.34c-.59,5.95.08,11.63,2.3,16.77,2.89,6.69,7.33,12.89,15.16,13.7,7.86.81,12.37-5,15.83-11.16,6.93-12.34,2.42-38.49-8.08-47.93-5.96-5.35-11.83-4.82-16.58,1.94-5.64,8.04-9.85,16.66-8.62,26.69Z"/>
      <path class="cls-9" d="m705.03,88.18c5.54,7.17,17.93,11.46,24.05,8.67,6.74-3.07,9.52-12.19,7.32-22.98-3.19-15.66-12.79-25.92-27.05-32.09-8.51-3.68-14.08-.14-14.82,8.94-.18,2.16-.03,4.35-.03,7.5-1.54,11.05,3.52,20.89,10.52,29.96Z"/>
      <path class="cls-17" d="m600.52,164.35c12.54,6.35,22.79.16,22.74-13.75-.05-16.21-15.54-35.34-31.31-38.81-7.51-1.65-12.05.87-13.35,8.75-2.85,17.25,6.47,35.99,21.93,43.82Z"/>
      <path class="cls-3" d="m561.48,449.75c6.37-5.1,6.98-14.17,1.89-20.76-7.58-9.84-18.28-10.88-33.39-10.94-4.77.26-13.37,1.24-20.54,7.17-3.86,3.19-5.11,6.99-2.95,11.58,8.11,17.23,40.22,24.77,54.99,12.95Z"/>
      <path class="cls-33" d="m903.39,98.17c-1.95-4.65-4.8-8.07-10.67-6.69-18.79,4.42-33.2,27.6-28.83,46.43,2.66,11.48,13.58,15.69,22.97,8.33,11.27-8.83,19.09-19.76,17.78-35.16-.11-4.31.48-8.77-1.26-12.92Z"/>
      <path class="cls-4" d="m692.18,186.73c-3.13-16.11-14.28-25.11-28.74-30.56-5.81-2.19-12.45-4.08-17.86.49-5.53,4.69-2.63,11.17-1.35,16.75,4.27,18.65,18.3,31.54,33.66,31.46,10.57-.05,16.41-7.21,14.28-18.15Z"/>
      <path class="cls-21" d="m1089.24,339.24c17.52-1.06,28.52-10.75,35.84-25.79,6.22-12.77,1.99-19.76-12.09-19.89-17.56-.17-32.49,9.7-38.72,25.6-4.23,10.79,3.45,20.78,14.96,20.08Z"/>
      <path class="cls-7" d="m895.21,386.43c17.52-1.06,28.52-10.75,35.84-25.79,6.22-12.77,1.99-19.76-12.09-19.89-17.56-.17-32.49,9.7-38.72,25.6-4.23,10.79,3.45,20.78,14.96,20.08Z"/>
      <path class="cls-18" d="m525.59,372.54c11.77-3.14,15.38-17.05,6.93-25.96-11.09-11.68-38.03-14.49-51.48-5.24-4.51,3.1-7.77,7.34-3.58,12.51,9.25,11.44,19.86,20.91,36.14,20.25,4-.5,8.13-.54,11.99-1.57Z"/>
      <path class="cls-15" d="m992.01,423.79c-7.33-5.58-15.68-7.41-25.29-7.07-9.59-.8-18.55,2.37-26.24,8.92-9.07,7.72-7.3,20.09,3.44,25.18,16.35,7.76,39.87,1.17,50.13-14.04,3.36-4.98,2.88-9.24-2.05-12.99Z"/>
      <path class="cls-31" d="m653.86,369.18c7.27-1.71,15.12-2.92,16.26-12.6,1.13-9.62-3.08-15.71-13.02-20.14-13.14-5.86-26.21-4.77-39.08.22-9.03,3.5-10.65,11.23-4.46,18.7,8.04,9.68,18.36,14.66,32.5,14.66,1.62-.16,4.79-.14,7.79-.84Z"/>
      <path class="cls-16" d="m638.13,301.01c7.27-1.71,15.12-2.92,16.26-12.6,1.13-9.62-3.08-15.71-13.02-20.14-13.14-5.86-26.21-4.77-39.08.22-9.03,3.5-10.65,11.23-4.46,18.7,8.04,9.68,18.36,14.66,32.5,14.66,1.62-.16,4.79-.14,7.79-.84Z"/>
      <path class="cls-32" d="m768.85,67.33c4.81-.45,6.59-4.31,8.25-8.02,2.96-6.65,2.66-13.42-.37-19.9-2.99-6.42-5.73-15.01-14.51-13.27-8.83,1.75-9.39,10.45-9.61,20.13-.31,4.14.87,9.84,4.45,14.89,2.87,4.05,6.6,6.66,11.8,6.17Z"/>
      <path class="cls-28" d="m622.11,433.6c-10.63.15-19.34,3.55-24.42,13.75-3.22,6.48-1.7,10.72,5.19,12.89,9.6,3.03,18.62.6,26.55-4.56,4.61-3,8.13-8.22,6.12-14.45-2.03-6.29-7.41-7.8-13.44-7.64Z"/>
      <path class="cls-37" d="m559.66,200.23c7.59,2.89,14.5-2.15,14.75-10.32.32-10.22-15.85-25.34-26-23.94-6.14.85-9.49,4.56-8.34,11.15,2.01,11.5,8.92,19.05,19.58,23.11Z"/>
      <path class="cls-35" d="m716.52,416.62c12.18.22,16.87-7.48,12.04-16.94-4.6-9.01-20.38-15.55-29.99-12.08-5.76,2.08-8.85,5.95-5.66,12.35,5.2,10.45,14.03,15.43,23.61,16.67Z"/>
      <path class="cls-34" d="m994.03,111.67c9.88-4.58,16.26-12.27,17.29-21.81.56-10.26-2.92-14.59-9.87-14.16-12.3.77-24.18,17.57-20.92,29.42,2.05,7.46,7.05,9.54,13.5,6.55Z"/>
      <path class="cls-12" d="m926.51,85.41c9.88-4.58,16.27-12.27,17.29-21.81.56-10.27-2.92-14.59-9.87-14.16-12.3.77-24.18,17.57-20.93,29.41,2.05,7.46,7.05,9.54,13.5,6.55Z"/>
      <path class="cls-20" d="m640.15,207.04c-9.72-.41-13.89,3.66-12.54,10.75,1.74,9.21,13.56,19.86,22.94,20.69,10.64.93,16.57-6.77,12.3-16.69-4.47-10.37-14.25-12.88-22.69-14.75Z"/>
      <path class="cls-5" d="m1094.57,257.51c9.84-1.59,18.53-4.98,23.18-14.83,3.59-7.61,1.3-12.62-6.76-14.6-8.77-2.16-22.47,3.37-26.99,11.17-2.2,3.81-4.02,7.97-1.51,12.37,2.62,4.58,6.94,5.96,12.08,5.9Z"/>
      <path class="cls-13" d="m728.27,127.64c-3.6,9.57-1.78,18.39,4.36,26.34,3.51,4.54,7.65,8.93,14.05,6.93,6.82-2.14,7.61-8.31,7.93-15.4-1.31-8.62-4.44-17.12-13.2-22.51-6.33-3.89-10.65-1.99-13.14,4.63Z"/>
      <path class="cls-19" d="m969.5,239.6c-10.82-4.02-29.6,7.7-30.76,19.22-.72,7.17,5.01,12.85,12.87,12.75,10.41-.13,23.85-15.58,22.82-25.96-.33-3.34-2.08-4.96-4.93-6.01Z"/>
      <path class="cls-29" d="m1094.33,191.34c-2.83,3.86-5.34,7.96-2.76,12.89,2.61,5.01,7.17,6.59,10.49,6.4,12.42,0,19.8-5.68,25.34-13.44,3.61-5.05,3.51-10.9-3.36-13.98-8.93-4-23.91.22-29.7,8.13Z"/>
      <path class="cls-40" d="m825.78,57.64c6.2-4.83,8.28-11.39,7.42-20.39,0-1.09.19-3.59-.04-6.05-.46-4.95-2.46-9.02-7.52-10.76-4.79-1.64-7.65,1.67-10.29,4.66-7.04,7.97-9.9,17.06-6.43,27.54,2.69,8.13,10.02,10.33,16.86,5Z"/>
    </g>
    <path class="cls-36" d="m607.29,358.85c-1.85.19-3.55.82-5.16,1.73-3.04,1.73-5.48,4.15-7.72,6.78-2.66,3.12-5.13,6.37-7.11,9.98-1.9,3.46-3.17,7.12-3.45,11.09-.03.42-.04.84-.07,1.37-.8-1.38-1.6-2.62-2.96-3.41.07-.53.14-1.09-.26-1.55-.1-.12-.2-.28-.34-.33-.39-.15-.42-.44-.41-.8.06-2.66.67-5.18,1.9-7.54.21-.41.51-.78.82-1.12.74-.82,1.32-1.71,1.54-2.81.04-.18.05-.37.08-.61-.96.45-1.65,1.1-2.08,1.97-1.63,3.34-3.02,6.76-2.82,10.58-.06.04-.1.07-.13.09-.65.36-1.03,0-1.49-.44-1.94-1.88-4.23-3.21-6.76-4.12-.47-.17-.91-.4-1.37-.58-1.09-.43-2.2-.54-3.39-.05.48.27.94.6,1.46.8.55.21,1.16.39,1.74.39,1.04,0,1.98.33,2.91.72,2.17.91,4.06,2.24,5.7,3.93-.42,1.25-.24,1.8.73,2.31-.39,1.13-.39,1.18.27,4.41-.85-.71-1.68-1.45-2.57-2.13-1.86-1.44-3.93-2.52-6.11-3.39-4.18-1.66-8.57-2.39-13-2.93-2.48-.3-4.97-.46-7.47-.3-1.69.11-3.37.32-4.99.86-.09.03-.2.03-.3.04-.65.27-1.3.53-1.95.79-.66.42-1.35.81-1.97,1.28-.91.69-1.73,1.47-2.25,2.52-.45.9-.55,1.83-.32,2.81.02.08.02.17.03.26.17.43.35.87.53,1.3.72.93,1.35,1.95,2.17,2.78,1.37,1.39,2.83,2.7,4.3,3.98,1.35,1.17,2.34,2.59,3.18,4.15.84,1.55,1.61,3.15,2.83,4.46,2.57,2.75,6.95,3.83,10.75,1.46-.04.04-.09.08-.13.13-.96,1.25-1.67,2.64-2.33,4.07-.71,1.56-.47,3.08.21,4.57.92,2.01,2.39,3.58,4.05,5,2.83,2.42,5.99,4.28,9.59,5.33.78.23,1.6.33,2.4.45,1.44.22,2.66-.31,3.79-1.14,2.55-1.86,4.13-4.4,5.08-7.34,1-3.08,1.81-6.21,2.15-9.43.13-1.27.13-2.55.19-3.81.1.19.24.43.35.68,1.01,2.14,2.01,4.29,3.02,6.43.17.37.39.71.62,1.05.22.32.51.47.9.27.38-.19.33-.54.26-.84-.19-.79-.39-1.59-.67-2.36-.73-2.08-1.5-4.15-2.28-6.3.25.27.46.49.67.71,1.55,1.69,3.35,3.08,5.27,4.33,2.12,1.38,4.24,2.76,6.59,3.73,2.5,1.03,5.08,1.46,7.76.93.23-.04.45-.09.68-.14.35-.14.7-.29,1.06-.43,2.11-1.61,3.22-3.89,4.13-6.28,1.1-2.87,1.73-5.85,1.78-8.94.03-2-.16-3.96-1.07-5.8-.65-1.32-1.67-2.21-3.07-2.63-1.35-.41-2.72-.76-4.09-1.14-.04-.01-.08-.03-.17-.08,1.32-.27,2.5-.77,3.51-1.6,2.3-1.89,3.36-4.36,3.14-7.3-.1-1.33-.48-2.64-.82-3.93-.46-1.8-1.01-3.57-.86-5.46.1-1.27.21-2.53.29-3.8.12-1.79.16-3.59-.19-5.36-.04-.21-.08-.43-.12-.64-.19-.46-.38-.92-.56-1.38-.9-1.54-2.27-2.26-4.02-2.3-.54-.01-1.08,0-1.62.05Z"/>
    <path class="cls-36" d="m527.78,207.5c-.1-.02-.18-.08-.28-.12-.69-.12-1.39-.24-2.08-.36-.78.01-1.57-.03-2.35.04-1.13.1-2.24.33-3.24.94-.86.52-1.43,1.27-1.76,2.21-.03.08-.07.16-.11.23-.08.46-.16.92-.24,1.38.11,1.17.11,2.37.37,3.51.42,1.91.97,3.79,1.54,5.66.52,1.71.61,3.44.5,5.2-.11,1.76-.3,3.52.04,5.28.72,3.69,3.87,6.93,8.35,6.93-.06.01-.12.02-.18.04-1.48.55-2.82,1.35-4.13,2.22-1.43.95-2.03,2.36-2.24,3.99-.28,2.19.13,4.31.79,6.38,1.12,3.55,2.82,6.8,5.32,9.59.54.6,1.18,1.13,1.8,1.65,1.11.94,2.42,1.14,3.82,1.04,3.14-.23,5.83-1.55,8.19-3.54,2.47-2.08,4.82-4.31,6.82-6.87.78-1.01,1.46-2.1,2.18-3.13-.02.21-.03.49-.06.76-.28,2.35-.57,4.71-.84,7.06-.05.4-.04.82-.03,1.22.01.39.18.67.62.71.43.04.57-.28.67-.58.25-.78.5-1.56.68-2.36.48-2.15.92-4.31,1.4-6.55.07.36.13.66.19.96.42,2.26,1.21,4.39,2.18,6.46,1.07,2.29,2.14,4.59,3.62,6.66,1.57,2.19,3.53,3.92,6.09,4.9.22.08.43.16.65.24.37.07.75.13,1.12.2,2.65-.25,4.8-1.6,6.83-3.14,2.45-1.86,4.57-4.05,6.25-6.64,1.09-1.68,1.96-3.45,2.16-5.49.14-1.47-.25-2.76-1.21-3.86-.93-1.07-1.91-2.09-2.86-3.13-.03-.03-.05-.07-.1-.15,1.26.47,2.52.67,3.82.5,2.95-.38,5.16-1.93,6.53-4.53.62-1.18.99-2.49,1.39-3.77.56-1.77,1.03-3.57,2.16-5.09.76-1.02,1.52-2.04,2.26-3.07,1.05-1.46,2.03-2.96,2.68-4.65.08-.2.16-.4.24-.6.09-.49.17-.98.26-1.47.05-1.78-.73-3.12-2.19-4.08-.45-.3-.92-.58-1.4-.81-1.67-.82-3.45-1.18-5.29-1.26-3.5-.14-6.84.62-10.14,1.67-3.9,1.24-7.73,2.69-11.31,4.7-3.44,1.93-6.46,4.37-8.79,7.58-.25.34-.48.69-.78,1.13.05-1.6.03-3.08-.71-4.46.34-.41.69-.85.6-1.46-.02-.16-.03-.34-.12-.46-.25-.34-.12-.6.07-.9,1.46-2.23,3.31-4.04,5.6-5.39.4-.23.85-.39,1.29-.51,1.06-.3,2.03-.75,2.79-1.57.13-.13.24-.29.39-.48-1.05-.13-1.99.06-2.8.57-3.15,1.97-6.14,4.13-7.99,7.48-.07,0-.12,0-.16,0-.74-.04-.88-.54-1.03-1.17-.65-2.62-1.88-4.96-3.55-7.08-.31-.39-.56-.82-.86-1.22-.7-.94-1.58-1.62-2.85-1.84.27.49.48,1.01.81,1.45.36.47.78.94,1.27,1.25.89.55,1.51,1.33,2.09,2.15,1.36,1.92,2.26,4.05,2.76,6.35-1.02.84-1.16,1.4-.61,2.35-.93.75-.96.8-2.11,3.88-.34-1.05-.66-2.12-1.05-3.17-.81-2.21-2-4.22-3.39-6.11-2.67-3.62-6-6.57-9.48-9.37-1.95-1.57-3.97-3.02-6.18-4.21-1.49-.81-3.03-1.51-4.69-1.91Z"/>
    <path class="cls-36" d="m1002.79,393c1.17-.63,2.2-1.52,3.25-2.36,1.45-1.16,2.84-2.4,4.62-3.04,1.2-.43,2.39-.85,3.58-1.29,1.68-.63,3.33-1.33,4.81-2.38.17-.13.36-.25.53-.37.34-.36.69-.72,1.03-1.08,1.03-1.45,1.12-3,.44-4.61-.21-.5-.44-.99-.71-1.45-.93-1.61-2.21-2.9-3.7-3.99-2.83-2.06-6.03-3.29-9.36-4.25-3.94-1.14-7.92-2.06-12.02-2.38-3.94-.31-7.79.04-11.53,1.42-.39.14-.78.3-1.28.5.93-1.3,1.74-2.54,1.89-4.1.51-.16,1.04-.32,1.31-.88.07-.14.17-.3.16-.45-.02-.42.23-.57.56-.71,2.45-1.04,5-1.52,7.65-1.37.46.03.92.15,1.36.29,1.05.34,2.1.5,3.19.25.18-.04.35-.11.59-.18-.81-.69-1.69-1.05-2.65-1.08-3.72-.11-7.41.02-10.8,1.78-.06-.04-.1-.06-.13-.09-.59-.44-.43-.94-.21-1.54.92-2.54,1.19-5.17.98-7.86-.04-.49-.01-.99-.04-1.49-.06-1.17-.41-2.23-1.35-3.11-.05.55-.16,1.11-.13,1.66.04.59.12,1.22.36,1.75.43.95.52,1.94.54,2.95.06,2.35-.37,4.62-1.23,6.81-1.31.13-1.74.52-1.81,1.61-1.2.11-1.24.13-3.91,2.06.3-1.06.63-2.13.89-3.21.55-2.29.69-4.62.58-6.97-.2-4.49-1.34-8.8-2.68-13.06-.75-2.38-1.62-4.72-2.79-6.93-.79-1.5-1.68-2.94-2.83-4.19-.07-.07-.11-.17-.16-.26-.51-.48-1.02-.97-1.53-1.45-.66-.43-1.29-.9-1.98-1.27-1-.54-2.05-.97-3.22-1.02-1-.04-1.89.25-2.69.86-.07.05-.15.09-.22.13-.33.34-.65.68-.97,1.02-.56,1.04-1.22,2.03-1.65,3.12-.71,1.82-1.3,3.69-1.86,5.56-.51,1.71-1.4,3.2-2.47,4.6-1.07,1.4-2.21,2.76-2.9,4.41-1.45,3.47-.64,7.91,3.09,10.41-.06-.02-.11-.05-.17-.06-1.53-.36-3.09-.44-4.66-.45-1.72,0-3,.83-4.08,2.07-1.45,1.67-2.28,3.66-2.89,5.74-1.04,3.58-1.43,7.22-.91,10.93.11.8.36,1.59.58,2.38.4,1.4,1.38,2.3,2.6,2.99,2.74,1.56,5.71,1.95,8.78,1.61,3.21-.36,6.4-.9,9.48-1.92,1.21-.4,2.38-.93,3.55-1.39-.13.17-.29.39-.47.6-1.54,1.8-3.09,3.6-4.62,5.4-.26.31-.49.66-.7,1-.2.33-.22.66.13.93.34.27.63.08.87-.11.64-.5,1.29-1.02,1.87-1.58,1.6-1.52,3.17-3.07,4.8-4.67-.14.34-.25.62-.37.9-.9,2.11-1.43,4.32-1.78,6.58-.38,2.5-.78,5-.69,7.54.09,2.7.76,5.22,2.35,7.46.13.19.27.37.4.56.28.26.55.52.83.79,2.34,1.26,4.87,1.34,7.43,1.19,3.07-.18,6.05-.83,8.88-2.05,1.84-.79,3.55-1.78,4.85-3.36.93-1.14,1.32-2.43,1.14-3.88-.18-1.4-.42-2.8-.64-4.2,0-.04,0-.08,0-.18.79,1.09,1.73,1.96,2.9,2.54,2.67,1.32,5.36,1.27,7.95-.14Z"/>
    <path class="cls-36" d="m845.53,48.34c3.13.81,6.3,1.43,9.55,1.57,1.28.06,2.56-.02,3.81-.04-.18.11-.41.26-.65.39-2.08,1.14-4.16,2.26-6.24,3.41-.36.2-.69.44-1.01.69-.31.24-.44.54-.22.92.22.37.56.3.86.21.78-.24,1.56-.49,2.31-.81,2.03-.86,4.05-1.75,6.15-2.66-.25.27-.46.49-.67.71-1.59,1.65-2.87,3.53-4,5.52-1.25,2.2-2.5,4.4-3.32,6.81-.87,2.55-1.15,5.15-.46,7.8.06.22.12.44.18.67.16.34.33.69.49,1.03,1.74,2.01,4.08,2.98,6.52,3.75,2.93.92,5.95,1.38,9.03,1.24,2-.09,3.95-.4,5.72-1.42,1.28-.73,2.1-1.8,2.45-3.22.33-1.38.6-2.77.9-4.15,0-.04.03-.08.07-.17.35,1.3.92,2.45,1.8,3.4,2.02,2.18,4.56,3.09,7.48,2.69,1.32-.18,2.6-.64,3.88-1.05,1.76-.57,3.5-1.23,5.4-1.19,1.27.02,2.54.06,3.81.06,1.8.01,3.59-.06,5.34-.51.21-.06.42-.1.63-.15.45-.22.9-.43,1.35-.65,1.49-.99,2.12-2.4,2.05-4.15-.02-.54-.06-1.08-.15-1.61-.3-1.83-1.04-3.5-2.05-5.04-1.91-2.93-4.47-5.22-7.24-7.3-3.28-2.46-6.67-4.74-10.39-6.49-3.57-1.69-7.3-2.73-11.28-2.77-.42,0-.83,0-1.37.01,1.33-.88,2.52-1.76,3.22-3.16.54.03,1.09.07,1.54-.35.12-.11.26-.22.31-.36.13-.4.41-.45.77-.46,2.66-.1,5.21.35,7.64,1.44.42.19.81.46,1.17.75.86.69,1.79,1.22,2.9,1.37.18.02.37.03.62.04-.51-.93-1.2-1.59-2.09-1.95-3.43-1.42-6.93-2.61-10.73-2.17-.05-.06-.07-.09-.09-.13-.39-.63-.07-1.03.35-1.51,1.76-2.05,2.95-4.41,3.71-7,.14-.47.34-.93.49-1.4.36-1.12.41-2.23-.16-3.39-.24.5-.55.98-.71,1.5-.17.57-.32,1.18-.28,1.76.06,1.04-.21,2-.54,2.95-.78,2.22-1.99,4.19-3.57,5.92-1.27-.34-1.81-.14-2.26.87-1.16-.32-1.21-.32-4.39.53.65-.89,1.34-1.77,1.97-2.69,1.33-1.94,2.28-4.07,3.02-6.31,1.41-4.27,1.87-8.7,2.14-13.16.15-2.49.16-4.99-.15-7.47-.21-1.68-.52-3.34-1.16-4.93-.04-.09-.04-.2-.06-.3-.3-.63-.61-1.27-.91-1.9-.46-.63-.89-1.3-1.4-1.89-.74-.86-1.57-1.63-2.65-2.09-.93-.4-1.86-.44-2.82-.15-.08.02-.17.03-.25.05-.42.2-.85.4-1.27.61-.89.77-1.86,1.46-2.65,2.33-1.31,1.45-2.53,2.99-3.72,4.54-1.09,1.42-2.45,2.49-3.95,3.42-1.5.93-3.05,1.79-4.28,3.09-2.59,2.73-3.4,7.17-.81,10.82-.05-.04-.09-.08-.14-.12-1.3-.88-2.73-1.51-4.2-2.07-1.6-.62-3.1-.29-4.55.49-1.95,1.04-3.43,2.61-4.74,4.34-2.25,2.97-3.91,6.24-4.74,9.89-.18.79-.23,1.61-.3,2.43-.13,1.45.47,2.63,1.37,3.72,2.01,2.43,4.64,3.85,7.63,4.63Z"/>
    <path class="cls-36" d="m902.2,176.54c-7.58,2.24-13.52,6.94-18.96,12.39-3.44,3.46-6.54,7.22-9.25,11.75-.62-1.93,1.46-2.75.55-4.86-2.81,2.21-3.45,5.56-5.39,8.41-1.64-1.83-1.17-4.33-2.28-6.18-.49-.81-.75-1.76-1.24-2.58-.52-.86-1.33-1.59-2.36-.98-1.16.69-.54,1.57.03,2.42,2.01,2.95,3.19,6.23,3.62,9.83-3.68-4.09-5.94-9.1-8.99-13.57-2.89-4.22-5.39-8.73-9.33-12.14-1.22-1.05-2.52-2.02-4.18-1.41-1.81.66-2.33,2.32-2.37,4.07-.14,6.97,2.95,13.01,5.94,18.94,9.07,18,18.42,35.86,27.65,53.78,1.49,2.89,2.68,5.9,3.66,9,.14.16.27.33.42.49.6.67,1.26.99,2.16,1.05.16.01.31.01.46,0,.43-.23.84-.49,1.17-.85.36-.4.56-.89.71-1.4-1.39-2.74-2.78-5.48-4.17-8.23-.63-1.25-1.07-2.51.49-3.4,1.45-.83,2.79-.58,3.8.77,1.29,1.72,2.53,3.47,3.73,5.25.84,1.24,1.64,2.6,3.36,1.37,1.55-1.1,1.04-2.5.18-3.78-1.08-1.6-2.21-3.15-3.32-4.72.82-.08,1.26.14,1.48.49,2.01,3.35,4.51,4.97,8.57,3.22,1.53-.66,3.57-1.01,5.03.6,1.95,2.15,3.75,4.39,5.24,6.93.64.54,1.26,1.11,1.89,1.66.51.27,1,.56,1.49.87.88.54,1.75,1,2.71,1.38.03.01.06.02.08.03.85.1,1.73.04,2.27-.54.55-1.56-.29-3.39-1.36-4.94-2.2-3.17-5.34-5.45-8.11-8.06-3.25-3.06-4.63-6.45-3.31-10.89,1.29-4.35-1.78-6.53-5.16-8.87,6.45-2.27,7.33-7.57,6.81-12.47-1.19-11.16,1.54-21.53,4.74-31.92.88-2.87,1.65-5.72.41-8.73-1.65-4.01-4.72-5.41-8.91-4.17Z"/>
    <path class="cls-36" d="m629.01,148.67s.05-.02.07-.03c.85-.33,1.62-.74,2.39-1.22.43-.27.87-.53,1.31-.76.55-.49,1.1-.99,1.66-1.46,1.31-2.23,2.9-4.21,4.62-6.1,1.28-1.41,3.08-1.11,4.43-.53,3.57,1.54,5.77.12,7.55-2.83.19-.31.58-.5,1.3-.43-.98,1.38-1.98,2.75-2.93,4.16-.76,1.13-1.2,2.35.16,3.32,1.52,1.08,2.22-.12,2.96-1.21,1.06-1.56,2.15-3.11,3.29-4.62.89-1.19,2.07-1.4,3.34-.68,1.38.78.99,1.9.43,3-1.22,2.41-2.44,4.83-3.67,7.24.13.45.3.88.62,1.24.29.31.66.55,1.03.75.13,0,.27,0,.41,0,.79-.05,1.37-.33,1.9-.92.13-.14.25-.29.37-.43.87-2.73,1.91-5.38,3.22-7.93,8.13-15.77,16.35-31.49,24.34-47.34,2.63-5.22,5.36-10.54,5.23-16.67-.03-1.54-.49-3-2.08-3.58-1.46-.54-2.6.31-3.68,1.24-3.47,3-5.67,6.97-8.21,10.69-2.69,3.94-4.68,8.34-7.91,11.94.38-3.17,1.42-6.05,3.19-8.65.5-.74,1.05-1.52.03-2.13-.9-.54-1.62.1-2.08.86-.43.72-.66,1.55-1.09,2.27-.97,1.63-.56,3.83-2,5.44-1.7-2.5-2.27-5.45-4.74-7.4-.81,1.85,1.03,2.58.48,4.27-2.39-3.99-5.11-7.3-8.14-10.34-4.79-4.81-10.02-8.94-16.69-10.91-3.7-1.09-6.39.14-7.85,3.67-1.09,2.65-.41,5.16.36,7.68,2.81,9.15,5.22,18.28,4.17,28.1-.46,4.31.32,8.98,5.99,10.98-2.98,2.06-5.68,3.98-4.54,7.81,1.16,3.91-.05,6.89-2.91,9.59-2.44,2.3-5.2,4.3-7.14,7.1-.94,1.36-1.68,2.97-1.2,4.35.48.51,1.25.56,2,.47Z"/>
    <path class="cls-36" d="m997.78,123.26c-1.9-.35-3.84-.55-5.18,1.09-1.46,1.79-1,3.82.03,5.65,4.1,7.3,10.98,11.66,17.69,15.97,20.35,13.1,40.9,25.89,61.38,38.79,3.31,2.08,6.37,4.47,9.27,7.09.24.09.48.17.73.25,1.03.33,1.91.26,2.87-.23.17-.08.33-.18.48-.28.3-.5.57-1.03.69-1.6.13-.63.04-1.27-.12-1.88-3.11-1.99-6.22-3.98-9.33-5.97-1.42-.91-2.64-1.95-1.56-3.82.99-1.74,2.53-2.3,4.4-1.52,2.38.99,4.73,2.05,7.06,3.15,1.62.77,3.28,1.69,4.32-.63.93-2.09-.44-3.22-2.12-4.02-2.08-1-4.21-1.91-6.32-2.86.8-.58,1.39-.63,1.83-.39,4.12,2.24,7.69,2.39,10.83-1.9,1.18-1.61,3.08-3.22,5.57-2.45,3.33,1.03,6.56,2.26,9.65,3.97.99.17,1.98.38,2.97.57.69-.03,1.38-.03,2.07-.01,1.24.03,2.42-.03,3.65-.22.04,0,.07-.01.11-.02.94-.41,1.81-1.01,2.02-1.94-.39-1.95-2.36-3.34-4.41-4.28-4.21-1.94-8.84-2.39-13.3-3.4-5.23-1.19-8.72-3.85-10.06-9.26-1.31-5.29-5.82-5.67-10.74-6.03,5.29-6.28,2.97-12.3-.55-17.05-8.03-10.82-11.52-23.21-14.55-35.91-.83-3.5-1.77-6.92-4.9-9.28-4.15-3.14-8.17-2.72-11.76,1.12-6.48,6.93-9.76,15.41-12.07,24.37-1.46,5.67-2.36,11.45-2.41,17.79-1.82-1.61-.16-3.74-2.39-5.36-1.55,4-.18,7.86-.45,11.98-2.81-.89-3.85-3.77-6.12-5.01-1-.55-1.85-1.36-2.85-1.91-1.06-.58-2.35-.83-3.04.43-.78,1.42.4,1.96,1.51,2.48,3.87,1.83,7.1,4.5,9.73,7.96-6.3-1.99-11.68-5.79-17.57-8.56-5.56-2.61-10.89-5.75-17.05-6.88Z"/>
    <path class="cls-1" d="m1139.88,62.53c99.95,113.59,160.58,262.63,160.58,425.83,0,189.68-81.86,360.22-212.18,478.22-114.48,103.68-266.25,166.82-432.86,166.82-352.41,0-638.79-282.56-644.93-633.5-.05-3.83-.1-7.66-.1-11.54,0-174.95,69.7-333.74,182.81-449.9C73.89,157.08,0,321.38,0,502.93c0,53.7,6.45,105.88,18.67,155.86,0,.16.05.31.1.47,70.06,286.23,328.34,498.67,636.23,498.67,16.41,0,32.67-.63,48.77-1.78,338.99-24.96,606.23-307.89,606.23-653.22,0-169.54-64.45-324.09-170.12-440.41Z"/>
    <path class="cls-25" d="m1017.02,862.24c-16.93-8.82-33.57-17.83-48.72-28-22.07-14.89-41.12-31.64-51.88-55.01-10.51-23.19-10.73-48.92-9.96-75.06,1.68-37.71,8.96-75.17,12.1-113.77,3.09-41.35,1.63-84.97-15.79-124.32-10.06-23.53-25.25-43.1-41.45-61.78-.69-37.05,23.46-86.32,47.42-108.98,11.58-11.08,25.47-20.03,40.72-26.14-32.55,7.94-61.46,29.76-79.68,57.99-11.21,17.16-21.92,35.45-27.89,55.18-15.8-17.81-31.04-35.9-42-57-24.93-49.02-7.07-110.05,39.54-142.78-51.65,18.53-82.98,77.24-74.24,131.14,2.43,14.78,7.48,28.7,14.09,41.99-58.67-31.64-124.65-47.96-189.72-46.87,82.55,6.76,161.06,41.42,220.47,95.08,6.95,9.38,14.03,18.54,20.77,27.58-3.35-.5-6.74-1.02-10.19-1.55-53.84-8.05-109.06-9.3-162.86-4.52,35.66,3.84,70.8,10.24,104.92,19.39,33.74,7.9,61.04,21.79,95.07,29.62,23.05,52.35,14.81,109.74,7.8,168.89-8.21,73.84-9.91,156.03,60.41,201.87,24.96,17.49,53.94,28.79,81.99,38.39,36.86,12.23,78.08,22.41,116.59,11.45-38.51.37-74.02-15.14-107.54-32.79Z"/>
  </g>
  <g>
    <g>
      <path class="cls-41" d="m1921,493.53c0-33.03,1.3-75.2,1.3-130.83,0-49.11-.44-90.41-.87-137.35-39.12,70.41-77.8,136.91-127.35,213.84-3.91,5.65-6.08,7.39-9.56,7.39s-5.65-1.74-8.26-5.22c-52.59-80.84-91.71-144.74-131.7-216.45-.44,44.33-1.74,79.11-1.74,124.74,0,49.55.87,84.32.87,131.7,0,10-1.74,13.04-5.65,13.04s-6.09-3.91-6.09-11.74c0-51.72,1.74-90.41,1.74-141.26,0-43.03-.87-76.07-.87-122.14,0-8.26,4.35-11.3,8.69-11.3s6.95,2.17,10.43,8.69c42.6,79.11,79.98,139.52,133,218.63,48.68-75.19,86.93-143,128.22-216.89,4.78-8.26,7.39-9.56,11.74-9.56,5.65,0,8.69,5.21,8.69,14.34,0,51.29-2.17,93.88-2.17,143,0,33.9.87,83.02.87,127.79,0,6.52-2.17,9.56-5.65,9.56-3.91,0-5.65-3.48-5.65-10Z"/>
      <path class="cls-41" d="m2155.73,435.72c-10.87,38.68-43.9,64.33-86.93,64.33s-74.33-22.17-74.33-60.42c0-33.03,26.95-62.15,89.97-62.15,19.13,0,52.59,5.65,70.85,12.17.44-3.48.44-6.95.44-10.43,0-49.12-19.12-76.5-66.94-76.5-24.78,0-43.9,6.52-59.98,18.69-7.39,5.65-10.87,7.39-13.91,7.39-3.48,0-4.78-2.17-4.78-4.35,0-11.3,36.08-29.99,78.24-29.99,56.07,0,76.5,36.07,76.5,77.37,0,107.36,3.91,117.36,17.39,117.36,6.09,0,9.13-3.48,13.47-3.48,2.61,0,4.35,1.74,4.35,3.91,0,4.35-7.39,7.82-16.52,7.82-19.12,0-27.38-10.87-27.82-61.72Zm-.87-36.08c-19.13-7.39-44.33-13.91-71.72-13.91-55.63,0-78.67,26.51-78.67,53.9,0,33.03,26.51,52.16,64.33,52.16,43.03,0,79.98-25.21,86.06-92.15Z"/>
      <path class="cls-41" d="m2243.98,487.01c0-23.91,2.61-43.03,2.61-82.15,0-66.94-6.52-86.06-6.52-96.49,0-5.22,2.17-8.26,5.65-8.26,6.52,0,8.69,12.61,8.69,86.06,10.43-51.29,45.2-89.97,80.84-89.97,23.91,0,41.73,12.17,41.73,19.99,0,2.61-1.74,4.35-4.78,4.35s-6.09-1.74-9.56-4.35c-10.87-7.82-19.12-10.87-28.69-10.87-45.2,0-79.11,66.07-79.11,133.44,0,22.17,1.3,43.46,1.3,49.11,0,9.56-1.74,13.91-5.65,13.91-4.78,0-6.52-4.78-6.52-14.78Z"/>
      <path class="cls-41" d="m2416.54,603.93c0-3.04,2.17-4.78,6.95-6.95,31.29-13.04,48.25-29.99,82.15-91.71-39.99-69.98-68.24-130.83-97.8-193.42-1.3-2.61-2.61-6.08-2.61-8.69,0-4.35,2.61-6.08,5.65-6.08,4.35,0,6.52,4.78,9.13,10.87,31.73,79.98,53.03,120.4,90.84,187.77,25.21-51.72,48.68-113.44,74.76-189.07,3.04-8.26,5.22-10.43,8.69-10.43,2.61,0,4.78,1.74,4.78,5.65,0,1.74-.87,5.21-2.61,9.99-43.03,114.75-74.76,189.94-109.1,243.4-21.73,33.9-49.12,53.03-63.46,53.03-4.78,0-7.39-1.74-7.39-4.35Z"/>
      <path class="cls-41" d="m2786.44,435.72c-10.87,38.68-43.9,64.33-86.93,64.33s-74.33-22.17-74.33-60.42c0-33.03,26.95-62.15,89.97-62.15,19.13,0,52.59,5.65,70.85,12.17.44-3.48.44-6.95.44-10.43,0-49.12-19.12-76.5-66.94-76.5-24.78,0-43.9,6.52-59.98,18.69-7.39,5.65-10.87,7.39-13.91,7.39-3.48,0-4.78-2.17-4.78-4.35,0-11.3,36.08-29.99,78.24-29.99,56.07,0,76.5,36.07,76.5,77.37,0,107.36,3.91,117.36,17.39,117.36,6.09,0,9.13-3.48,13.47-3.48,2.61,0,4.35,1.74,4.35,3.91,0,4.35-7.39,7.82-16.52,7.82-19.12,0-27.38-10.87-27.82-61.72Zm-.87-36.08c-19.13-7.39-44.33-13.91-71.72-13.91-55.63,0-78.67,26.51-78.67,53.9,0,33.03,26.51,52.16,64.33,52.16,43.03,0,79.98-25.21,86.06-92.15Z"/>
      <path class="cls-41" d="m3042.02,480.93c-1.74-13.91-2.61-43.03-2.61-108.66,0-44.77-21.73-71.28-62.59-71.28-55.63,0-89.97,62.15-89.97,118.22,0,41.29.87,60.42.87,68.67s-2.17,11.74-6.09,11.74-6.08-3.04-6.08-13.91c0-21.73,2.17-48.68,2.17-76.5,0-80.41-6.95-91.27-6.95-105.18,0-4.35,1.3-7.82,4.78-7.82,5.65,0,10,9.56,10.43,77.37,10.87-41.29,44.77-80.84,89.97-80.84,49.12,0,72.59,30.86,72.59,79.1,0,55.2.87,83.45,3.04,98.67,2.17,15.65,4.78,18.69,4.78,24.77,0,4.35-2.17,6.09-4.78,6.09-4.35,0-7.39-4.78-9.56-20.43Z"/>
      <path class="cls-41" d="m3208.94,499.18c-52.59,0-99.54-33.9-99.54-97.8,0-59.55,45.64-108.23,103.01-108.23,49.12,0,78.24,28.25,78.24,58.68,0,40.42-37.81,58.68-84.76,58.68-25.64,0-64.33-7.39-86.06-17.82-.43,2.17-.43,4.35-.43,6.52,0,57.37,37.81,91.71,92.58,91.71,27.82,0,56.07-13.91,76.5-37.82,5.22-6.52,6.95-7.39,9.56-7.39s4.35,1.74,4.35,4.78c0,10-39.12,48.68-93.45,48.68Zm72.59-146.48c0-27.39-26.95-51.29-70.41-51.29s-82.58,38.68-90.41,82.58c25.64,12.17,58.68,18.25,86.93,18.25,42.6,0,73.89-16.95,73.89-49.55Z"/>
    </g>
    <g>
      <path class="cls-41" d="m2391.93,940.26c0-33.03,1.3-75.2,1.3-130.83,0-49.11-.44-90.41-.87-137.35-39.12,70.41-77.8,136.91-127.35,213.84-3.91,5.65-6.09,7.39-9.56,7.39s-5.65-1.74-8.26-5.22c-52.59-80.84-91.71-144.74-131.7-216.45-.43,44.33-1.74,79.11-1.74,124.74,0,49.55.87,84.32.87,131.7,0,10-1.74,13.04-5.65,13.04s-6.09-3.91-6.09-11.74c0-51.72,1.74-90.41,1.74-141.26,0-43.03-.87-76.07-.87-122.14,0-8.26,4.35-11.3,8.69-11.3s6.95,2.17,10.43,8.69c42.6,79.11,79.98,139.52,133,218.63,48.68-75.2,86.93-143,128.22-216.89,4.78-8.26,7.39-9.56,11.74-9.56,5.65,0,8.69,5.22,8.69,14.34,0,51.29-2.17,93.88-2.17,143,0,33.9.87,83.02.87,127.79,0,6.52-2.17,9.56-5.65,9.56-3.91,0-5.65-3.48-5.65-10Z"/>
      <path class="cls-41" d="m2640.13,869.42c-10.87,45.64-45.64,78.67-87.36,78.67-50.42,0-78.67-29.12-78.67-108.66,0-34.34,2.61-64.33,6.52-85.19,1.74-8.69,3.91-11.3,6.95-11.3s4.78,2.61,4.78,7.82c0,13.04-8.26,33.9-8.26,91.27,0,72.59,26.08,97.8,66.94,97.8,46.94,0,87.8-45.2,87.8-109.53,0-32.6-3.04-61.72-3.04-79.54,0-10.43,1.74-13.91,6.52-13.91,3.04,0,5.22,3.48,5.22,16.52,0,28.68-1.3,54.76-1.3,88.67,0,52.16,12.6,79.54,12.6,93.45,0,5.22-1.3,7.39-3.91,7.39-3.04,0-4.78-2.61-6.95-9.56-3.91-14.34-7.39-37.38-7.82-63.89Z"/>
      <path class="cls-41" d="m2894.85,927.66c-1.74-13.91-2.61-43.03-2.61-108.66,0-44.77-21.73-71.28-62.59-71.28-55.63,0-89.97,62.15-89.97,118.22,0,41.29.87,60.42.87,68.67s-2.17,11.74-6.08,11.74-6.09-3.04-6.09-13.91c0-21.73,2.17-48.68,2.17-76.5,0-80.41-6.95-91.27-6.95-105.18,0-4.35,1.3-7.82,4.78-7.82,5.65,0,10,9.56,10.43,77.37,10.87-41.29,44.77-80.84,89.97-80.84,49.12,0,72.59,30.86,72.59,79.1,0,55.2.87,83.45,3.04,98.67,2.17,15.65,4.78,18.69,4.78,24.77,0,4.35-2.17,6.09-4.78,6.09-4.35,0-7.39-4.78-9.56-20.43Z"/>
      <path class="cls-41" d="m3150,871.15c-19.12,56.5-61.29,76.93-96.06,76.93-50.42,0-91.71-42.6-91.71-101.28s33.03-108.23,101.71-108.23c23.47,0,61.72,13.47,86.49,36.94-.44-81.71-.87-125.18-.87-136.91,0-12.61,2.17-16.52,6.08-16.52s6.09,2.61,6.09,13.47c0,29.56-2.17,78.67-2.17,190.38,0,77.8,4.35,96.06,4.35,107.79,0,6.08-2.17,9.13-5.22,9.13-6.09,0-7.82-10.87-8.69-71.72Zm.44-54.77v-28.25c-26.08-25.21-59.98-41.29-89.1-41.29-50.85,0-89.1,38.69-89.1,99.1,0,50.85,32.6,93.88,81.28,93.88s96.93-47.37,96.93-123.44Z"/>
      <path class="cls-41" d="m3250.85,682.95c0,21.3-5.65,26.08-10.43,26.08-7.82,0-11.3-6.95-11.3-23.47s4.35-23.04,11.3-23.04c6.52,0,10.43,6.95,10.43,20.43Zm-5.65,173.86c0,50.42,2.61,66.5,2.61,78.24,0,12.61-2.17,15.21-6.09,15.21s-6.52-3.04-6.52-14.34c0-9.13.87-54.77.87-84.76,0-49.98-2.61-85.19-2.61-95.19,0-8.69,2.61-11.3,6.09-11.3,4.35,0,6.08,3.04,6.08,11.3,0,12.61-.43,43.03-.43,100.84Z"/>
      <path class="cls-41" d="m3330.4,948.96c-4.35,0-6.52-4.35-6.52-15.21,0-28.69,2.17-42.6,2.17-76.5,0-62.59-8.69-93.89-8.69-106.92,0-4.35,2.17-6.52,4.78-6.52,6.09,0,11.3,13.04,11.74,76.06,11.3-47.81,46.07-83.89,85.63-83.89,36.08,0,60.85,25.64,66.07,76.5,10.43-41.29,40.42-76.5,80.41-76.5s67.81,27.38,67.81,76.93c0,68.67.87,86.93,4.35,103.88,2.61,12.61,3.91,15.65,3.91,20.43,0,4.35-1.74,6.52-4.78,6.52-4.78,0-8.26-4.78-10.43-23.9-1.74-14.78-2.17-43.9-2.17-102.14,0-48.68-20.43-73.45-59.11-73.45-42.16,0-77.37,49.11-77.37,113.88,0,27.82,1.74,52.59,1.74,72.15,0,13.47-2.17,16.08-5.65,16.08-4.35,0-6.52-3.48-6.52-15.65,0-25.21,1.3-51.29,1.3-75.63,0-81.71-21.73-110.83-59.98-110.83-43.9,0-83.89,56.5-83.89,122.57,0,33.47,1.3,44.77,1.3,66.94,0,12.6-2.17,15.21-6.08,15.21Z"/>
    </g>
  </g>
</svg>